<svg xmlns="http://www.w3.org/2000/svg" width="364.908" height="390.869" viewBox="0 0 364.908 390.869"><defs><style>.a{fill:#fff;}.b{fill:#fcdc4a;}.c{fill:#211715;}</style></defs><path class="a" d="M184.232,183.521c4-9.99,5.34-14.19,8.84-24.94a555.826,555.826,0,0,0,15.086-56.4,35.3,35.3,0,0,1-17.052,10.173,37.076,37.076,0,0,1-9.188,1.119,58.376,58.376,0,0,1-8.468-1.095,31.162,31.162,0,0,1-16.551-8.869,557.156,557.156,0,0,0,14.8,55.07c3.5,10.75,4.84,14.95,8.83,24.94Z"></path><path class="a" d="M220.677,86.1a4.692,4.692,0,0,0-5,4.513c0,2.722,2.088,4.6,5,4.6,3.025,0,5-1.892,5-4.6A4.688,4.688,0,0,0,220.677,86.1Z"></path><path class="a" d="M184.232,183.521c4-9.99,5.34-14.19,8.84-24.94,5.12-15.73,9.88-33.03,13.52-49.2,1.063.68,2.3,1.526,3.614,2.486,15.824,6.395,30.47,13.366,42.016,21.594,11.415,8.135,26.14,22.3,28.193,35.482.98,6.295.179,12.084-2.614,16.58-36.689,0-156.4,0-189.549,0-2.794-4.5-3.595-10.285-2.614-16.58,2.052-13.177,16.777-27.347,28.192-35.482,10.867-7.744,24.481-14.375,39.238-20.461,1.854-1.429,3.654-2.683,5.114-3.619,3.64,16.17,8.4,33.47,13.52,49.2,3.5,10.75,4.84,14.95,8.83,24.94Z"></path><path class="a" d="M2.453,386.2V187.768a1.986,1.986,0,0,1,1.757-2.153H360.7a1.985,1.985,0,0,1,1.756,2.153V386.2a1.984,1.984,0,0,1-1.756,2.152H4.21A1.985,1.985,0,0,1,2.453,386.2Z"></path><path class="a" d="M93.513,187.358c-2.014-5.973-3.04-15.861,5.5-21.187,4.267-2.659,12.875-4.118,19.584-2.932,6.793,1.2,12.121,5.567,13.332,12.359a72.633,72.633,0,0,1,1.245,13.266c.01,2.953-1.814,5.239-3.592,5.632-2.111.467-4.836-.3-5.444-3.268-.4,3.04-2.108,4.834-4.414,5.339-2.441.534-4.828-1.241-5.386-4.047l-.4-1.993-.172,1.365a4.6,4.6,0,0,1-4.182,4.156c-2.691.073-4.453-1.506-5.079-4.231l-.45-1.956-.21,1.137c-.456,2.468-1.534,3.7-3.29,4.218a4.182,4.182,0,0,1-4.43-1.859,36.1,36.1,0,0,1-2.621-6"></path><path class="a" d="M272.54,187.358c2.013-5.973,3.039-15.861-5.5-21.187-4.267-2.659-12.876-4.118-19.584-2.932-6.794,1.2-12.122,5.567-13.333,12.359a72.739,72.739,0,0,0-1.244,13.266c-.011,2.953,1.813,5.239,3.592,5.632,2.111.467,4.836-.3,5.443-3.268.4,3.04,2.108,4.834,4.414,5.339,2.442.534,4.828-1.241,5.386-4.047l.4-1.993.172,1.365a4.6,4.6,0,0,0,4.182,4.156c2.692.073,4.453-1.506,5.08-4.231l.449-1.956L262.2,191c.456,2.468,1.535,3.7,3.29,4.218a4.182,4.182,0,0,0,4.43-1.859,36.189,36.189,0,0,0,2.622-6"></path><path class="a" d="M170.414,111.679a33.246,33.246,0,0,1-15.488-10.238,43.794,43.794,0,0,1-8.4-14.135,6.1,6.1,0,0,1-5.661-1.211c-3.058-2.5-4.326-5.991-5.1-8.272-1.093-3.221-1.162-8.427.467-11.252a5.338,5.338,0,0,1,4.794-2.663,5.845,5.845,0,0,1,3.738,1.16l1.857-.565,4.638-1.416a160.834,160.834,0,0,0,21.187-7.8c12.274-5.518,17.718-9.685,25.327-17.715,3.772,5.583,11.684,15.253,15.377,23.429l1.888,4.268.072.162h3.651a5.746,5.746,0,0,1,4.157-1.522,5.336,5.336,0,0,1,4.794,2.663c1.629,2.825,1.561,8.031.467,11.252-.774,2.281-2.043,5.77-5.1,8.272a6.081,6.081,0,0,1-5.757,1.18,43.851,43.851,0,0,1-8.409,14.085,35.368,35.368,0,0,1-17.805,11,37.076,37.076,0,0,1-9.188,1.119,58.376,58.376,0,0,1-8.468-1.095A28.558,28.558,0,0,1,170.414,111.679Z"></path><path class="b" d="M180.532,183.521c-3.99-9.99-5.33-14.19-8.83-24.94-3.453-10.611-6.743-21.936-9.638-33.144a44.3,44.3,0,0,0,20.325,4.188,44.29,44.29,0,0,0,20.32-4.186c-2.893,11.208-6.183,22.532-9.637,33.142-3.5,10.75-4.84,14.95-8.84,24.94Z" style="fill: rgb(140, 105, 74);"></path><path class="b" d="M236.564,76.907c-1.48-8.085-3.627-14.654-5.679-24.251-1.725-8.085-2.594-18.447-6.019-25.445-2.289-4.668-6.769-11.6-13.513-15.679L203.61,7.246,202.474,6.6a55.037,55.037,0,0,0-22.008-4.216c-15.162,0-27.709,6.943-33.7,12.676-6.706,7.137-9.463,14.26-12.606,27.7-2.054,8.786-4.087,19.476-5.7,28.355-1.384,7.641-1.528,15.321,2.281,22.089,4.361,7.75,12.511,11.458,24.8,12.833l1.908.025c-.185-.851-.383-1.715-.561-2.558l.008,0c-.672-.659-1.336-1.342-1.981-2.066a43.794,43.794,0,0,1-8.4-14.135,6.1,6.1,0,0,1-5.661-1.211c-3.058-2.5-4.326-5.991-5.1-8.272-1.093-3.221-1.162-8.427.467-11.252a5.338,5.338,0,0,1,4.794-2.663,5.845,5.845,0,0,1,3.738,1.16l1.857-.565,4.638-1.416a160.834,160.834,0,0,0,21.187-7.8c12.274-5.518,17.718-9.685,25.327-17.715,3.772,5.583,11.684,15.253,15.377,23.429l1.888,4.268.072.162h3.651a5.746,5.746,0,0,1,4.157-1.522,5.336,5.336,0,0,1,4.794,2.663c1.629,2.825,1.561,8.031.467,11.252-.774,2.281-2.043,5.77-5.1,8.272-.147.121-.307.232-.469.342a4.458,4.458,0,0,1,3.069,4.178c0,2.7-1.975,4.6-5,4.6-2.749,0-4.74-1.681-4.957-4.159a43,43,0,0,1-6.809,10.307c-.262.294-.526.576-.791.857.013-.013.025-.02.038-.034-.31,1.486-.647,3-.978,4.514l1.15.014c11.639.5,20.037-4.11,24.851-12.083A25.786,25.786,0,0,0,236.564,76.907Z" style="fill: rgb(140, 105, 74);"></path><path class="c" d="M169.865,182.31c-8.212-14.283-16.318-28.637-23.892-43.271q-.369-.711-.735-1.424l-.312-.608q-.1-.2-.208-.405-.136-.395-.115-.025c.18.1-.145.261-.1.3,0,0,.587-.633.637-.686q.645-.684,1.3-1.355c1.646-1.678,3.353-3.295,5.07-4.9a2.422,2.422,0,0,0-.485-3.769q-1.686-.959-3.369-1.92l-1.681-.96-.84-.48q-.777-.517-.119.061l.327,1.211c-.036.641.216-.2.355-.429.2-.334.421-.661.651-.978a18.978,18.978,0,0,1,1.254-1.52,44.239,44.239,0,0,1,3.871-3.765,68.472,68.472,0,0,1,7.921-5.936l-3.526-1.434a581.947,581.947,0,0,0,17.256,60.522c1.571,4.586,3.3,9.115,5.094,13.618a2.474,2.474,0,0,0,2.952,1.676,2.417,2.417,0,0,0,1.677-2.952A479.192,479.192,0,0,1,164.8,126.41q-2.3-8.8-4.3-17.667a2.418,2.418,0,0,0-3.526-1.434,65.112,65.112,0,0,0-12.3,9.944c-1.51,1.614-3.986,4.121-4.11,6.472-.105,2.015,1.471,2.841,2.989,3.708q2.525,1.443,5.05,2.88l-.486-3.769c-1.6,1.5-3.2,3.005-4.739,4.563-1.472,1.487-3.493,3.1-3.554,5.364-.054,2.033,1.63,4.271,2.536,6.012q1.5,2.889,3.032,5.765c4.177,7.855,8.487,15.64,12.861,23.387q3.707,6.564,7.469,13.1c1.539,2.678,5.689.263,4.145-2.422Z"></path><path class="c" d="M186.547,184.159A475.865,475.865,0,0,0,204.6,127.686q2.3-8.8,4.3-17.667l-3.526,1.434a68.134,68.134,0,0,1,7.929,5.936,44.263,44.263,0,0,1,3.873,3.765,19.194,19.194,0,0,1,1.254,1.52c.23.317.447.644.651.978.15.246.371,1.057.344.429l.328-1.211q.657-.578-.119-.061l-.84.48-1.68.96-3.36,1.92a2.422,2.422,0,0,0-.486,3.769c1.484,1.392,2.961,2.791,4.4,4.229q1.081,1.082,2.131,2.2c.032.035.482.512.479.515.036-.035-.3-.2-.112-.3l-.013-.177-.207.4a8.977,8.977,0,0,0-.416.811q-2.765,5.376-5.626,10.7-5.919,11.041-12.114,21.934-3.418,6.043-6.887,12.06c-1.544,2.682,2.6,5.1,4.145,2.422q6.625-11.511,13.078-23.123,3.224-5.829,6.368-11.7c2.019-3.776,4.211-7.541,5.971-11.447,1.277-2.833-.535-4.756-2.409-6.68-1.748-1.8-3.566-3.522-5.394-5.236l-.485,3.769,4.83-2.76c1.495-.854,3.229-1.652,3.211-3.65-.022-2.419-2.572-5-4.113-6.65a64.709,64.709,0,0,0-12.308-9.944,2.418,2.418,0,0,0-3.526,1.434,580.825,580.825,0,0,1-17.256,60.522c-1.573,4.587-3.3,9.115-5.1,13.618a2.417,2.417,0,0,0,1.676,2.952,2.458,2.458,0,0,0,2.953-1.676Z"></path><path class="c" d="M235.452,179.521q.5-11.811.67-23.63c.05-3.09-4.75-3.091-4.8,0q-.189,11.82-.67,23.63c-.13,3.089,4.67,3.083,4.8,0Z"></path><path class="c" d="M129.172,155.891q.191,11.82.67,23.63c.13,3.078,4.931,3.094,4.8,0q-.5-11.811-.67-23.63c-.049-3.085-4.849-3.095-4.8,0Z"></path><path class="c" d="M161.269,127.707a53.807,53.807,0,0,0,42.239,0,2.42,2.42,0,0,0,.861-3.284,2.456,2.456,0,0,0-3.284-.861,43.985,43.985,0,0,1-18.7,3.663,44.288,44.288,0,0,1-18.7-3.663,2.471,2.471,0,0,0-3.284.861,2.42,2.42,0,0,0,.861,3.284Z"></path><path class="c" d="M214.6,116.252c13.261,5.6,26.513,11.879,38.1,20.514a99.124,99.124,0,0,1,13.961,12.6c4.028,4.411,7.879,9.412,10.026,15.042,2.417,6.339,2.617,14.094-1.03,20-1.626,2.637,2.524,5.05,4.145,2.423,3.731-6.048,4.2-13.837,2.492-20.625-1.587-6.3-5.306-11.927-9.363-16.91-8.681-10.661-19.99-19.039-31.933-25.7a243.167,243.167,0,0,0-23.977-11.486,2.485,2.485,0,0,0-3.284.861,2.417,2.417,0,0,0,.861,3.284Z"></path><path class="c" d="M90.386,184.408c-3.291-5.352-3.465-12.32-1.643-18.22,1.769-5.729,5.414-10.848,9.309-15.329,8.559-9.846,19.18-17.513,30.572-23.755a248.8,248.8,0,0,1,22.821-10.852,2.415,2.415,0,0,0,.861-3.284,2.466,2.466,0,0,0-3.284-.861c-13.7,5.787-27.381,12.305-39.242,21.382a102.393,102.393,0,0,0-14.991,13.825c-4.334,4.963-8.26,10.5-10.411,16.787-2.486,7.258-2.214,16.1,1.863,22.73,1.615,2.627,5.769.219,4.145-2.423Z"></path><path class="c" d="M232.953,183.22H145.39c-4.027,0-8.089-.155-12.114,0-.057,0-.115,0-.173,0-3.088,0-3.093,4.8,0,4.8h87.564c4.027,0,8.089.154,12.114,0,.057,0,.115,0,.172,0,3.089,0,3.094-4.8,0-4.8Z"></path><path class="c" d="M92.993,183.22H6.555c-.7,0-1.4-.032-2.1,0a4.49,4.49,0,0,0-4.4,4.55c-.12,2.454,0,4.944,0,7.4V383.218c0,3.275-.114,7.338,4.414,7.532,2.071.089,4.166,0,6.239,0H340.287c6.691,0,13.444.267,20.131,0,4.451-.178,4.435-4.175,4.435-7.436v-188c0-2.5.123-5.045,0-7.548a4.479,4.479,0,0,0-4.363-4.551c-.678-.033-1.364,0-2.042,0H273.063c-3.088,0-3.093,4.8,0,4.8h85.385a6.884,6.884,0,0,0,2.042,0c.426-.182-.3-.29-.437-.126-.311.367,0,2.4,0,2.858V383.5c0,.342-.265,2.385,0,2.628-.054-.05,1.173-.114-.012-.18-2.412-.134-4.871,0-7.286,0H11.136c-2.062,0-4.509-.366-6.548,0a2.465,2.465,0,0,0-.365,0c-.047.127.535.293.63.219.033-.026-.018-.21,0-.247.35-.726,0-2.527,0-3.312V189.941c0-.251.206-2,0-2.157.092.072-1.174.161.073.236.914.054,1.849,0,2.765,0h85.3c3.089,0,3.094-4.8,0-4.8Z"></path><path class="c" d="M95.828,186.722c-1.547-4.8-2.213-10.3.643-14.831,3.233-5.126,10.138-6.438,15.749-6.645s12.041.969,15.4,5.965c1.674,2.488,2.107,5.347,2.524,8.261.257,1.8.42,3.611.519,5.425.095,1.732.46,3.823-.137,5.487a3.341,3.341,0,0,1-1.15,1.643,1.607,1.607,0,0,1-.98.194,2.517,2.517,0,0,1-1.128-.278,1.694,1.694,0,0,1-.731-1.006,52.918,52.918,0,0,1-1.183-5.955c-.406-2.1-.8-4.2-1.22-6.3a2.4,2.4,0,0,0-4.629,1.276c.436,2.175.843,4.356,1.266,6.534a45.209,45.209,0,0,0,1.24,6.045,6.833,6.833,0,0,0,8.715,4.113,7.4,7.4,0,0,0,4.113-4.177c.924-2.183.769-4.534.66-6.853a52.414,52.414,0,0,0-1.658-12.36c-2.268-7.569-9.206-11.774-16.733-12.638a36.674,36.674,0,0,0-12.3.792,21.1,21.1,0,0,0-9.861,4.856c-6.006,5.6-6.117,14.4-3.757,21.728.944,2.928,5.58,1.676,4.629-1.276Z"></path><path class="c" d="M121.829,190.59a11.974,11.974,0,0,1-.362,1.591q-.151.4.008.027c-.057.126-.117.25-.181.372-.094.178-.207.343-.307.517q-.236.332.029-.019c-.081.1-.165.192-.252.284-.13.135-.27.257-.409.383.424-.384-.065.03-.191.106s-.733.349-.172.126q-.263.1-.532.182c-.155.045-.9.1-.339.094-.2,0-.4,0-.6-.006.6.03-.179-.075-.326-.115-.447-.123.26.213-.149-.08-.117-.065-.23-.136-.341-.211q.282.234.085.067a6.16,6.16,0,0,1-.513-.509c.329.357-.12-.185-.183-.293-.053-.09-.341-.756-.185-.328a6.5,6.5,0,0,1-.2-.664c-.117-.48-.2-.97-.3-1.454q-.308-1.518-.622-3.035c-.5-2.454-1-4.909-1.47-7.369a2.424,2.424,0,0,0-2.952-1.677,2.451,2.451,0,0,0-1.676,2.953q.65,3.4,1.351,6.791a51.268,51.268,0,0,0,1.163,5.514,7.523,7.523,0,0,0,4.62,4.89,6.984,6.984,0,0,0,5.994-.879,8.569,8.569,0,0,0,3.637-5.982,2.466,2.466,0,0,0-1.676-2.952c-1.136-.259-2.76.347-2.952,1.676Z"></path><path class="c" d="M111.461,191.254a5.752,5.752,0,0,1-.154.758q-.052.182-.117.36.19-.426.02-.061c-.089.161-.181.317-.273.476q-.228.327.057-.049c-.075.092-.153.181-.235.267s-.165.167-.252.246q-.3.256.08-.047c-.069.113-.328.216-.435.276s-.2.106-.305.152q.473-.195.1-.063c-.07.014-.42.166-.49.116.361-.044.406-.057.136-.037-.118,0-.235,0-.353,0s-.229-.01-.342-.02c-.272-.028-.223-.021.145.021a4.3,4.3,0,0,1-.466-.106c-.1-.028-.2-.059-.3-.094q-.363-.138.151.067a5.734,5.734,0,0,0-.523-.293c-.389-.219.353.352.011.013-.143-.142-.284-.284-.425-.429-.309-.317.243.441-.043-.072-.091-.165-.195-.32-.281-.488-.051-.1-.1-.2-.143-.3q.195.472.052.1c-.119-.373-.224-.744-.31-1.126-.182-.8-.354-1.605-.527-2.409-.432-2-.858-4.009-1.317-6.006a2.42,2.42,0,0,0-2.952-1.677,2.453,2.453,0,0,0-1.676,2.953c.414,1.8.8,3.614,1.191,5.424a26.3,26.3,0,0,0,1.206,4.725,7.044,7.044,0,0,0,3.452,3.8,7.251,7.251,0,0,0,6.046.086,7.083,7.083,0,0,0,3.9-5.28,2.466,2.466,0,0,0-1.677-2.952c-1.136-.259-2.759.348-2.952,1.676Z"></path><path class="c" d="M101.54,190.36a10.128,10.128,0,0,1-.265,1.087c-.03.093-.061.185-.094.277q-.138.362.088-.183c-.07.109-.112.245-.173.36s-.122.223-.19.33c-.333.528.284-.285.018,0-.08.086-.155.174-.238.256-.2.194-.543.3.047,0-.213.11-.443.253-.646.381-.17.08-.069.039.3-.123-.075.03-.15.058-.226.085-.116.04-.233.077-.352.106-.611.15.44.016.027,0-.127,0-.257,0-.384,0-.444,0,.6.159.052,0-.152-.044-.306-.075-.456-.125-.087-.029-.173-.06-.257-.095l.32.131c-.063-.1-.381-.2-.487-.27q-.088-.055-.174-.117-.22-.159.208.161c-.035-.1-.277-.253-.357-.338-.391-.419.2.384-.019-.012-.085-.155-.186-.3-.275-.455q-.318-.548-.6-1.117-.149-.3-.285-.613l-.067-.151q-.156-.362.051.122a4.527,4.527,0,0,1-.413-1.058c-.287-.759-.567-1.521-.871-2.274a2.627,2.627,0,0,0-1.1-1.434,2.449,2.449,0,0,0-1.849-.242A2.424,2.424,0,0,0,91.2,188c.6,1.474,1.11,2.977,1.751,4.432a9.5,9.5,0,0,0,2.668,3.858,6.526,6.526,0,0,0,4.346,1.439A6.649,6.649,0,0,0,104,195.963a7.89,7.89,0,0,0,2.172-4.327,2.4,2.4,0,1,0-4.628-1.276Z"></path><path class="c" d="M241.914,178.677c-.665,3.326-1.286,6.661-1.936,9.99-.212,1.081-.243,2.573-1.118,3.258a2.686,2.686,0,0,1-1.977.2c-.964-.389-1.546-1.929-1.6-3.055a45.891,45.891,0,0,1,.242-6.089,39.478,39.478,0,0,1,1.417-8.777c1.937-5.982,8.073-8.649,13.931-8.944,6.039-.3,13.62.62,17.839,5.443,3.877,4.433,3.22,10.891,1.518,16.014-.977,2.938,3.657,4.2,4.628,1.276,2.028-6.105,2.368-13.554-1.475-19.049-4.766-6.815-13.867-8.717-21.725-8.514-8.031.209-15.881,3.7-19,11.543-1.347,3.387-1.635,7.408-1.934,11.008-.357,4.307-1,9.581,2.795,12.623a6.8,6.8,0,0,0,10.522-3.071,45.741,45.741,0,0,0,1.209-5.909c.427-2.226.851-4.452,1.295-6.674A2.461,2.461,0,0,0,244.866,177a2.422,2.422,0,0,0-2.952,1.676Z"></path><path class="c" d="M239.6,191.866c.623,4.32,4.429,7.924,8.966,7.043a7.031,7.031,0,0,0,4.842-3.969,27.583,27.583,0,0,0,1.441-5.812c.521-2.529,1.032-5.06,1.517-7.6a2.4,2.4,0,1,0-4.629-1.276c-.47,2.46-.965,4.915-1.469,7.369q-.312,1.517-.622,3.035c-.091.445-.172.894-.272,1.338a6.429,6.429,0,0,1-.225.78c.155-.428-.133.238-.186.328-.063.108-.511.65-.182.293-.141.153-.289.3-.436.442-.209.177-.206.177.007,0-.11.075-.224.146-.34.211-.42.3.344-.055-.15.08-.147.04-.924.145-.326.115-.2.01-.4.008-.6.006.55.006-.091-.027-.247-.069a5.683,5.683,0,0,1-.623-.207c.54.215.026-.011-.093-.079s-.707-.549-.27-.153c-.139-.126-.28-.248-.409-.383-.088-.092-.172-.186-.253-.284.177.234.186.24.029.019-.1-.175-.212-.338-.306-.517-.065-.122-.125-.246-.181-.372.106.247.108.238.008-.027a13.669,13.669,0,0,1-.362-1.591,2.416,2.416,0,0,0-2.953-1.676,2.463,2.463,0,0,0-1.676,2.952Z"></path><path class="c" d="M249.963,192.53a6.972,6.972,0,0,0,9.012,5.572,7.044,7.044,0,0,0,4.053-3.432,18.689,18.689,0,0,0,1.37-4.695c.446-2.067.884-4.136,1.358-6.2a2.4,2.4,0,1,0-4.629-1.276c-.451,1.966-.871,3.939-1.3,5.911-.18.835-.359,1.671-.547,2.5-.087.383-.2.75-.31,1.126-.1.25-.078.218.052-.1-.045.1-.093.2-.143.3-.086.168-.19.323-.282.488-.285.513.266-.245-.043.072-.14.145-.281.287-.425.429-.349.343.437-.254.011-.013a5.708,5.708,0,0,0-.522.293q.514-.206.15-.067c-.1.035-.2.066-.3.094a3.522,3.522,0,0,1-.467.106c.369-.042.417-.049.146-.021-.114.01-.228.016-.342.02s-.236,0-.354,0q-.329-.025-.016.014t-.012-.009c-.11-.023-.218-.051-.325-.084q-.372-.132.1.063c-.1-.046-.2-.1-.3-.152s-.366-.163-.436-.276q.382.3.08.047-.13-.119-.252-.246c-.081-.086-.16-.175-.235-.267.19.25.21.267.057.049-.085-.16-.182-.319-.272-.476q-.171-.364.02.061-.066-.179-.117-.36a5.921,5.921,0,0,1-.155-.758,2.406,2.406,0,0,0-2.952-1.676,2.475,2.475,0,0,0-1.676,2.952Z"></path><path class="c" d="M259.884,191.636c.535,2.776,2.329,5.391,5.261,5.963a6.5,6.5,0,0,0,4.705-.882,8.539,8.539,0,0,0,3.009-3.755c.77-1.613,1.326-3.312,2-4.966a2.4,2.4,0,0,0-.242-1.849,2.443,2.443,0,0,0-1.434-1.1,2.471,2.471,0,0,0-2.952,1.676c-.305.753-.584,1.515-.871,2.274a4.445,4.445,0,0,1-.414,1.058c.128-.3.155-.363.084-.2l-.1.226q-.138.309-.286.613-.256.526-.548,1.035c-.1.181-.222.355-.322.537-.226.408.34-.341.028-.04-.073.071-.384.3-.405.39l.265-.2c-.075.055-.152.108-.231.158-.137.088-.284.157-.424.239-.167.081-.08.048.258-.1-.085.035-.171.066-.257.095-.129.043-.259.08-.391.111-.642.149.4.01-.014.011-.126,0-.258,0-.384,0-.439.015.606.171.087.014-.137-.042-.276-.074-.411-.12-.412-.143-.035-.059.128.064a5.2,5.2,0,0,0-.7-.407c.591.3.246.2.048,0-.084-.082-.159-.17-.239-.256-.286-.309.317.52.052.05-.072-.129-.155-.251-.224-.382-.059-.113-.1-.254-.172-.36q.225.544.087.183c-.033-.092-.064-.184-.093-.277a9.673,9.673,0,0,1-.265-1.087,2.414,2.414,0,0,0-2.953-1.676,2.462,2.462,0,0,0-1.676,2.952Z"></path><path class="c" d="M146.88,63.733a8.666,8.666,0,0,0-9.423-1.41,8.236,8.236,0,0,0-4.319,5.556,20.942,20.942,0,0,0,3.047,16.532c2.132,3.172,5.489,6.024,9.568,5.5a2.479,2.479,0,0,0,2.4-2.4,2.413,2.413,0,0,0-2.4-2.4c-2.969.385-4.935-2.066-6.222-4.441a17.065,17.065,0,0,1-2.088-6.505c-.194-2.259-.151-4.919,1.126-6.8-.365.536.617-.563.357-.368a2.984,2.984,0,0,1,1.275-.58,3.65,3.65,0,0,1,3.284.711c2.3,2.051,5.7-1.333,3.395-3.394Z"></path><path class="c" d="M174.876,97.924a15.548,15.548,0,0,0,7.484,1.743,12.287,12.287,0,0,0,7.657-2.3,2.4,2.4,0,0,0,0-3.394,2.475,2.475,0,0,0-3.394,0c.82-.639-.1.028-.36.167-.205.107-.767.274-.038.041-.208.067-.408.157-.616.224a14.879,14.879,0,0,1-1.723.393s.531-.059-.025,0c-.169.017-.338.031-.508.042-.407.026-.816.036-1.225.034q-.549,0-1.1-.04c-.168-.011-.335-.024-.5-.041-.095-.01-.19-.02-.286-.032q-.279-.033.183.024a4.816,4.816,0,0,1-1.61-.357c-.225-.068-.445-.149-.667-.225-.56-.191.474.231-.032-.008q-.414-.195-.818-.409a2.4,2.4,0,1,0-2.423,4.145Z"></path><path class="c" d="M180.9,80.6a34.035,34.035,0,0,1,.8,3.648l-.086-.638a2.238,2.238,0,0,1,.014.5l.085-.638a1.242,1.242,0,0,1-.055.226l.242-.573a.9.9,0,0,1-.08.146l.375-.486a.732.732,0,0,1-.119.117l.486-.375a2.417,2.417,0,0,1-.289.153l.573-.242a2.125,2.125,0,0,1-.487.142L183,82.5a1.941,1.941,0,0,1-.457,0l.638.085c-.172-.024-.341-.066-.514-.089a1.823,1.823,0,0,0-.957-.043,1.794,1.794,0,0,0-.892.285,2.4,2.4,0,0,0-.861,3.284,2.3,2.3,0,0,0,1.434,1.1c.439.059.866.169,1.313.189a4.289,4.289,0,0,0,2-.483,3,3,0,0,0,1.625-1.96,4.7,4.7,0,0,0-.018-2.052c-.2-1.175-.47-2.34-.772-3.493a2.4,2.4,0,0,0-2.952-1.676,2.431,2.431,0,0,0-1.435,1.1A2.523,2.523,0,0,0,180.9,80.6Z"></path><path class="c" d="M162.047,70.131c-.609,1.979-.212,6.533,3.538,6.921,4.957-.03,5.221-5.536,3.552-8.124C167.771,66.808,163.754,65.927,162.047,70.131Z"></path><path class="c" d="M201.9,70.131c.61,1.98.213,6.534-3.538,6.921-4.957-.03-5.221-5.536-3.552-8.124C196.171,66.808,200.188,65.927,201.9,70.131Z"></path><path class="c" d="M220.461,67.127a3.507,3.507,0,0,1,2.832-.8,2.887,2.887,0,0,1,1.92.871c.057.059.451.553.253.276s.106.183.137.239a4.287,4.287,0,0,1,.458,1.036,11.97,11.97,0,0,1,.509,3.462,16.9,16.9,0,0,1-1.223,6.411c-.751,1.975-2.046,4.452-3.945,5.731a2.459,2.459,0,0,0-.861,3.284,2.423,2.423,0,0,0,3.284.861c3.019-2.034,4.884-5.269,6.15-8.6a20.279,20.279,0,0,0,1.3-9.337c-.32-3.01-1.281-6.052-3.935-7.785a8.611,8.611,0,0,0-10.269.953c-2.3,2.072,1.1,5.458,3.4,3.394Z"></path><path class="c" d="M216.1,83.4c-.328,1.066-.681,2.124-1.07,3.17a1.823,1.823,0,0,0-.043.957,1.794,1.794,0,0,0,.285.892,2.677,2.677,0,0,0,1.434,1.1,2.429,2.429,0,0,0,1.85-.242l.486-.375a2.407,2.407,0,0,0,.617-1.059c.389-1.046.742-2.1,1.07-3.17a1.823,1.823,0,0,0,.043-.957,1.8,1.8,0,0,0-.285-.893,2.679,2.679,0,0,0-1.435-1.1,2.431,2.431,0,0,0-1.849.241,2.571,2.571,0,0,0-1.1,1.435Z"></path><path class="c" d="M143.109,84.678c3.648,11.773,11.344,23,22.993,27.975a39.084,39.084,0,0,0,9.012,2.444,41.3,41.3,0,0,0,10.862.568,37.349,37.349,0,0,0,17.534-6.336,43.319,43.319,0,0,0,14.256-17.008,2.466,2.466,0,0,0-.861-3.284,2.423,2.423,0,0,0-3.284.861c-4.961,10.379-13.96,18.593-25.5,20.683a31.264,31.264,0,0,1-9.567.227,45.485,45.485,0,0,1-8.845-1.869,31.785,31.785,0,0,1-13.092-9.2A43.661,43.661,0,0,1,147.738,83.4c-.912-2.942-5.547-1.687-4.629,1.276Z"></path><path class="c" d="M204.821,5.174C200.338,2.635,194.859,1.353,189.8.639a58.959,58.959,0,0,0-20.686.586,54.971,54.971,0,0,0-16.3,6.38,37.459,37.459,0,0,0-10.945,9.562c-6.818,8.923-9.112,20.464-11.41,31.2-1.455,6.8-2.756,13.637-4,20.479-1.219,6.674-2.032,13.556-.055,20.18a24.5,24.5,0,0,0,10.678,14.013c5.549,3.393,12.1,4.672,18.478,5.4a2.413,2.413,0,0,0,2.4-2.4,2.458,2.458,0,0,0-2.4-2.4c-5.019-.574-10.22-1.593-14.72-3.985a19.585,19.585,0,0,1-8.821-9.237C129.4,84.768,129.661,78.2,130.7,72.2c1.108-6.376,2.345-12.736,3.651-19.074,1.249-6.067,2.54-12.152,4.29-18.1a49.248,49.248,0,0,1,5.394-12.62,30.634,30.634,0,0,1,8.239-8.76,49.24,49.24,0,0,1,13.788-6.672A53.042,53.042,0,0,1,186.719,5.07a49.813,49.813,0,0,1,9.149,1.759,32.289,32.289,0,0,1,6.53,2.489c2.692,1.525,5.114-2.62,2.423-4.144Z"></path><path class="c" d="M210.141,13.6c5.788,3.562,10.306,9.446,13.03,15.629,3.156,7.161,3.651,15.349,5.17,22.945,1.61,8.052,4.062,15.909,5.643,23.967A23.862,23.862,0,0,1,228.6,96.828c-5.205,5.773-12.705,7.77-20.273,7.483-3.089-.117-3.084,4.683,0,4.8,7.766.3,15.521-1.634,21.5-6.772a28.272,28.272,0,0,0,9.494-22.12c-.158-4.133-1.278-8.268-2.259-12.267-1.038-4.233-2.166-8.444-3.145-12.692-1.941-8.425-2.53-17.287-5.41-25.472A39.745,39.745,0,0,0,212.564,9.46c-2.638-1.624-5.052,2.526-2.423,4.144Z"></path><path class="c" d="M196.075,35.873A68.762,68.762,0,0,1,178.9,49.464a142.728,142.728,0,0,1-25.168,10.345c-2.578.811-5.165,1.591-7.749,2.38-2.946.9-1.69,5.534,1.276,4.628,6.458-1.971,12.928-3.907,19.207-6.406,8.1-3.224,16.293-6.859,23.256-12.19a83.883,83.883,0,0,0,9.748-8.954c2.127-2.239-1.261-5.639-3.394-3.394Z"></path><path class="c" d="M195.7,38.782c3.585,5.281,7.583,10.267,11.03,15.646a87.631,87.631,0,0,1,6.234,12.05,2.417,2.417,0,0,0,3.284.861,2.46,2.46,0,0,0,.861-3.284,87.521,87.521,0,0,0-6.234-12.05c-3.45-5.378-7.445-10.365-11.031-15.646-1.725-2.541-5.886-.142-4.144,2.423Z"></path><path class="c" d="M220.677,83.7a7.4,7.4,0,0,0-7.062,4.825,6.9,6.9,0,0,0,2.632,7.785,8.268,8.268,0,0,0,8.3.372,6.906,6.906,0,0,0,3.39-7.392c-.587-3.442-3.957-5.55-7.26-5.59a2.4,2.4,0,0,0,0,4.8c.15,0,.3.014.45.016.4.006-.15-.016-.2-.038a6.933,6.933,0,0,0,.688.147c.132.037.259.085.389.126.368.116-.172-.061-.2-.089a6.323,6.323,0,0,0,.68.379c.062.041.423.286.064.037s-.02,0,.044.057c.149.139.271.317.422.451-.421-.374-.239-.343-.121-.141.051.088.11.171.16.26s.087.186.141.27q.118.254-.12-.3c.029.076.057.153.082.23a5.748,5.748,0,0,0,.149.595c-.012-.026-.052-.649-.037-.269,0,.126.016.25.016.377,0,.087,0,.175-.006.263-.011.232-.142.539.036-.128-.059.218-.083.444-.149.662a2.744,2.744,0,0,0-.1.286c.1-.534.2-.415.077-.193-.095.171-.192.338-.294.505-.13.214-.284.187.13-.16a2.17,2.17,0,0,0-.154.174c-.08.086-.163.168-.25.246-.2.182-.365.162.119-.078-.176.087-.335.225-.511.319-.106.057-.233.1-.333.162.031-.02.579-.206.221-.1-.21.061-.415.132-.629.18a3.283,3.283,0,0,0-.4.075l.361-.051c-.094.01-.188.018-.283.024a6.531,6.531,0,0,1-.727.008c-.094,0-.189-.015-.283-.019-.513-.021.586.114.091.013-.217-.044-.433-.091-.646-.156-.082-.025-.163-.057-.246-.082-.4-.121.558.28-.007-.009-.184-.094-.354-.206-.529-.316s-.159-.238.195.157c-.078-.086-.185-.158-.269-.239s-.476-.557-.211-.2.023.02-.021-.048c-.066-.1-.127-.2-.184-.309-.116-.216-.112-.475.037.134-.018-.076-.059-.156-.084-.231-.067-.2-.108-.4-.157-.607-.112-.47.031.614.018.123,0-.088-.012-.177-.014-.266,0-.129,0-.257.006-.386.017-.3.157-.354-.029.147.081-.22.12-.482.188-.708.106-.35-.085.212-.1.236a4.281,4.281,0,0,0,.228-.43c.042-.07.089-.136.132-.2.224-.368-.416.437-.036.05a4.6,4.6,0,0,0,.489-.477l-.288.218c.068-.051.137-.1.208-.147.107-.072.217-.14.329-.2.093-.052.2-.091.291-.15.167-.078.078-.042-.269.108.084-.033.168-.064.254-.093a7,7,0,0,1,.809-.206c.291-.062.033.117-.208.027a2.344,2.344,0,0,0,.6-.029,2.4,2.4,0,1,0,0-4.8Z"></path></svg>