<svg xmlns="http://www.w3.org/2000/svg" width="364.907" height="390.714" viewBox="0 0 364.907 390.714"><defs><style>.a{fill:#fff;}.b{fill:#fcdc4a;}.c{fill:#211715;}</style></defs><path class="a" d="M219.108,63.294a5.747,5.747,0,0,1,4.158-1.522,5.338,5.338,0,0,1,4.794,2.663c1.629,2.825,1.56,8.031.467,11.252-.775,2.281-2.043,5.77-5.1,8.272a6.064,6.064,0,0,1-5.756,1.174,43.868,43.868,0,0,1-8.41,14.091,35.375,35.375,0,0,1-17.806,11,37.07,37.07,0,0,1-9.188,1.119,58.394,58.394,0,0,1-8.468-1.095c-6.963-1.208-13.21-4.978-18.524-10.939a43.828,43.828,0,0,1-8.4-14.132,6.109,6.109,0,0,1-5.661-1.214c-3.058-2.5-4.327-5.991-5.1-8.272-1.094-3.221-1.163-8.427.466-11.252a5.338,5.338,0,0,1,4.794-2.663,5.747,5.747,0,0,1,4.158,1.522s-7.6-38.266,37-38.266S219.108,63.294,219.108,63.294Z"></path><path class="a" d="M184.241,181.913c4.028-10.061,5.378-14.291,8.9-25.117,5.156-15.842,9.95-33.266,13.616-49.551,0,0,0-2.65,0-5.454a35.4,35.4,0,0,1-15.31,8.429,37.07,37.07,0,0,1-9.188,1.119,58.394,58.394,0,0,1-8.468-1.095A30.829,30.829,0,0,1,158,102.1c0,2.182,0,5.15,0,5.15,3.666,16.285,8.46,33.709,13.616,49.551,3.525,10.826,4.875,15.056,8.893,25.117"></path><path class="a" d="M180.514,181.913c-4.018-10.061-5.368-14.291-8.893-25.117-5.156-15.842-9.95-33.266-13.616-49.551-1.472.943-3.285,2.206-5.154,3.646-15.285,6.307-29.384,13.18-40.642,21.2-11.851,8.446-27.137,23.155-29.267,36.835-.964,6.188-.27,11.905,2.269,16.457,35.919,0,160.512,0,195.63,0,2.539-4.549,3.233-10.266,2.269-16.454-2.131-13.68-17.416-28.389-29.267-36.835-11.945-8.513-27.087-15.729-43.451-22.35-1.317-.965-2.564-1.816-3.632-2.5-3.666,16.285-8.46,33.709-13.616,49.551-3.525,10.826-4.875,15.056-8.9,25.117Z"></path><path class="a" d="M2.453,386.064V187.632a1.985,1.985,0,0,1,1.756-2.153H360.7a1.985,1.985,0,0,1,1.756,2.153V386.064a1.984,1.984,0,0,1-1.756,2.152H4.209A1.984,1.984,0,0,1,2.453,386.064Z"></path><path class="a" d="M90.874,187.792c-2.028-6.015-3.061-15.974,5.545-21.338,4.3-2.678,12.967-4.147,19.723-2.953,6.842,1.21,12.208,5.607,13.428,12.447a73.254,73.254,0,0,1,1.253,13.361c.011,2.974-1.826,5.276-3.617,5.672-2.126.47-4.871-.3-5.483-3.291-.4,3.062-2.123,4.868-4.445,5.376-2.459.538-4.863-1.249-5.424-4.075l-.4-2.008-.173,1.375a4.636,4.636,0,0,1-4.213,4.185c-2.71.074-4.484-1.516-5.115-4.26l-.453-1.97-.212,1.145c-.459,2.486-1.545,3.726-3.313,4.248a4.211,4.211,0,0,1-4.461-1.872,36.5,36.5,0,0,1-2.641-6.042"></path><path class="a" d="M275.177,187.792c2.028-6.015,3.061-15.974-5.544-21.338-4.3-2.678-12.967-4.147-19.724-2.953-6.842,1.21-12.207,5.607-13.427,12.447a73.239,73.239,0,0,0-1.254,13.361c-.01,2.974,1.827,5.276,3.618,5.672,2.126.47,4.871-.3,5.482-3.291.4,3.062,2.124,4.868,4.446,5.376,2.459.538,4.862-1.249,5.424-4.075l.4-2.008.173,1.375a4.636,4.636,0,0,0,4.212,4.185c2.711.074,4.485-1.516,5.116-4.26l.453-1.97.211,1.145c.459,2.486,1.545,3.726,3.313,4.248a4.213,4.213,0,0,0,4.462-1.872,36.416,36.416,0,0,0,2.64-6.042"></path><path class="b" d="M175.389,131.963a15.058,15.058,0,0,0-.4-2.158c-.1-.41-.19-.82-.28-1.23-.45-2.02-.53-3.06-1.05-5.21l-.237-1.156c2.665-2.439,6.438-5.852,8.6-7.489h.722c2.2,1.672,6.092,5.2,8.763,7.642l-.664,1.473a25.941,25.941,0,0,0-1.28,4.16,17.214,17.214,0,0,0-1.02,4.83c-.01.75,1.78,13.289,3.7,26.738-2.889,8.867-4.336,13.193-8,22.35h-3.727c-3.785-9.478-5.2-13.781-8.3-23.3,1.55-12.84,3.2-25.649,3.2-26.089C175.413,132.337,175.4,132.15,175.389,131.963Z" style="fill: rgb(89, 55, 25);"></path><path class="b" d="M209.872,13.338c-7.615-8.487-17.739-10.832-27.716-10.832a45.214,45.214,0,0,0-27.987,9.2,40.8,40.8,0,0,0-7.888,8.214c-5.114,5-9.193,15.938-8.888,26.781a55.617,55.617,0,0,0,2.031,15.406,6.788,6.788,0,0,1,1.949-.335,5.48,5.48,0,0,1,5.4,3.391c.4-3.3.631-4.4,1.12-7.293.788-4.642,5.586-6.787,7.635-10.935,1.18-2.389,1.882-5.182,3.9-6.882a10.007,10.007,0,0,1,5.506-1.92,150.143,150.143,0,0,1,16.712-.229L199.5,40.512A24.8,24.8,0,0,1,211,49.075a36.641,36.641,0,0,1,3.977,8.186l4.136,6.033a5.747,5.747,0,0,1,4.158-1.522,6.921,6.921,0,0,1,1.812.29,48.443,48.443,0,0,0,1.96-15.361c-.63-14.922-4.109-21.653-11.291-28.141Z" style="fill: rgb(89, 55, 25);"></path><path class="c" d="M169.756,180.7c-8.237-14.326-16.367-28.724-23.969-43.4q-.422-.811-.839-1.625l-.312-.607-.207-.4q-.133-.391-.116-.03c.082.061-.054.244-.1.289.224-.219.428-.463.642-.691q.648-.69,1.312-1.365c1.658-1.689,3.377-3.318,5.106-4.933a2.422,2.422,0,0,0-.485-3.77q-1.7-.965-3.393-1.933l-1.693-.967-.846-.484q-.778-.517-.126.056l.327,1.211c-.035.63.224-.218.36-.441q.308-.505.655-.985a19.334,19.334,0,0,1,1.266-1.534,44.592,44.592,0,0,1,3.9-3.792,68.954,68.954,0,0,1,7.98-5.981l-3.525-1.434A587.282,587.282,0,0,0,173.022,168.7c1.6,4.667,3.351,9.274,5.178,13.855a2.474,2.474,0,0,0,2.952,1.676,2.417,2.417,0,0,0,1.676-2.953,482.289,482.289,0,0,1-18.1-56.581q-2.357-9.006-4.41-18.087a2.417,2.417,0,0,0-3.525-1.434,65.542,65.542,0,0,0-12.383,10.012c-1.519,1.622-4.01,4.144-4.135,6.506-.106,2.023,1.479,2.85,3,3.72q2.543,1.452,5.086,2.9l-.486-3.77c-1.614,1.508-3.219,3.026-4.773,4.6-1.466,1.48-3.54,3.125-3.574,5.39A6.877,6.877,0,0,0,140.6,137.7q.785,1.527,1.576,3.049,1.5,2.885,3.03,5.756c4.208,7.911,8.549,15.75,12.955,23.552q3.7,6.552,7.455,13.072c1.539,2.677,5.689.262,4.145-2.423Z"></path><path class="c" d="M186.555,182.552a478.7,478.7,0,0,0,18.109-56.582q2.358-9.006,4.41-18.087l-3.525,1.434a68.655,68.655,0,0,1,7.989,5.981,44.6,44.6,0,0,1,3.9,3.792,19.106,19.106,0,0,1,1.265,1.534q.348.478.656.985c.146.24.376,1.058.35.441l.327-1.211q.653-.575-.126-.056l-.846.484-1.692.967-3.384,1.933a2.423,2.423,0,0,0-.485,3.77c1.494,1.4,2.982,2.81,4.431,4.258q1.089,1.091,2.146,2.213c.161.171.317.351.483.518-.044-.044-.206-.224-.11-.289l-.014-.172-.207.4a9.364,9.364,0,0,0-.519,1.012q-2.763,5.367-5.62,10.684Q208.181,157.587,202,168.459q-3.469,6.137-6.991,12.243c-1.544,2.682,2.6,5.1,4.145,2.423q6.674-11.594,13.17-23.286,3.217-5.82,6.358-11.681c2.052-3.838,4.285-7.665,6.07-11.635,1.24-2.756-.422-4.642-2.258-6.537-1.811-1.87-3.7-3.663-5.6-5.444l-.486,3.77,4.864-2.78c1.5-.857,3.245-1.656,3.226-3.661-.022-2.432-2.589-5.029-4.137-6.686a65.138,65.138,0,0,0-12.393-10.012,2.417,2.417,0,0,0-3.525,1.434,586.4,586.4,0,0,1-17.332,60.814c-1.6,4.667-3.356,9.274-5.188,13.854a2.418,2.418,0,0,0,1.677,2.953,2.458,2.458,0,0,0,2.952-1.676Z"></path><path class="c" d="M237.823,179.9q.5-11.9.675-23.8c.049-3.09-4.751-3.091-4.8,0q-.192,11.9-.675,23.8c-.131,3.089,4.669,3.083,4.8,0Z"></path><path class="c" d="M126.791,156.323q.191,11.9.675,23.8c.13,3.077,4.931,3.093,4.8,0q-.5-11.9-.675-23.8c-.049-3.086-4.85-3.095-4.8,0Z"></path><path class="c" d="M214.842,114.153c13.577,5.736,27.135,12.157,39.052,20.925a103.706,103.706,0,0,1,14.39,12.785c4.272,4.582,8.282,9.719,10.735,15.532,2.727,6.465,3.158,14.6-.3,20.875-1.492,2.707,2.651,5.131,4.144,2.422,3.51-6.368,3.882-14.369,1.924-21.3-1.827-6.465-5.694-12.209-9.939-17.327-9.014-10.867-20.614-19.412-32.891-26.241a253.973,253.973,0,0,0-24.695-11.818,2.481,2.481,0,0,0-3.283.861,2.415,2.415,0,0,0,.861,3.283Z"></path><path class="c" d="M87.335,184.27c-3.086-5.6-3.056-12.757-1.092-18.732,1.933-5.881,5.737-11.133,9.781-15.743,8.835-10.071,19.743-17.935,31.441-24.348a257.862,257.862,0,0,1,23.749-11.294,2.413,2.413,0,0,0,.861-3.283,2.463,2.463,0,0,0-3.283-.861c-14.064,5.937-28.121,12.616-40.335,21.882a107.589,107.589,0,0,0-15.43,14.06C88.5,151.042,84.41,156.7,82.012,163.129c-2.782,7.454-2.7,16.517,1.179,23.563,1.491,2.706,5.638.287,4.144-2.422Z"></path><path class="c" d="M176.012,133.349c4.05,0,8.1-.085,12.148-.086a2.4,2.4,0,1,0,0-4.8c-4.05,0-8.1.085-12.148.086a2.4,2.4,0,0,0,0,4.8Z"></path><path class="c" d="M171.349,124c.375,1.587.623,3.2.959,4.792a15.712,15.712,0,0,1,.7,3.835c-.072,1.525-.362,3.067-.55,4.58-.885,7.135-1.781,14.268-2.643,21.405a2.413,2.413,0,0,0,2.4,2.4,2.458,2.458,0,0,0,2.4-2.4c.874-7.235,1.783-14.466,2.68-21.7.177-1.428.463-2.894.517-4.334a21.389,21.389,0,0,0-.874-5.064c-.336-1.595-.584-3.205-.959-4.792-.709-3.005-5.339-1.733-4.628,1.276Z"></path><path class="c" d="M194.557,158.927c-1-7.039-2.02-14.077-2.988-21.122-.165-1.2-.223-1.618-.364-2.695-.083-.642-.19-1.289-.236-1.935a8.558,8.558,0,0,1,.388-2.811,35.643,35.643,0,0,1,1.558-5.318,2.472,2.472,0,0,0-.861-3.283,2.417,2.417,0,0,0-3.283.861,44.888,44.888,0,0,0-1.856,5.811,14.257,14.257,0,0,0-.761,4.583c.085,1.726.433,3.475.666,5.184,1,7.338,2.062,14.669,3.109,22a2.414,2.414,0,0,0,2.952,1.676,2.463,2.463,0,0,0,1.676-2.952Z"></path><path class="c" d="M195.737,122.982c-3.88-3.492-7.624-7.167-11.781-10.334a2.407,2.407,0,0,0-1.85-.242,2.444,2.444,0,0,0-1.434,1.1,2.473,2.473,0,0,0,.861,3.283c.305.233-.539-.427-.076-.058l.351.279q.332.267.659.538.786.653,1.556,1.321c1.116.965,2.216,1.947,3.311,2.935,1.678,1.513,3.329,3.057,5.009,4.569a2.4,2.4,0,0,0,3.394-3.394Z"></path><path class="c" d="M172.423,126.376c1.68-1.512,3.331-3.056,5.009-4.569,1.095-.988,2.2-1.97,3.311-2.935.515-.445,1.032-.886,1.556-1.321q.327-.271.659-.538l.351-.279c.463-.369-.381.291-.076.058a2.638,2.638,0,0,0,1.1-1.434,2.451,2.451,0,0,0-.242-1.849c-.634-.984-2.215-1.675-3.284-.861-4.157,3.167-7.9,6.842-11.781,10.334a2.416,2.416,0,0,0,0,3.394,2.454,2.454,0,0,0,3.394,0Z"></path><path class="c" d="M90.2,183.081H5.478c-.418,0-.845-.025-1.263,0-2.555.15-4.061,2.193-4.162,4.636-.119,2.889,0,5.808,0,8.7v187.13c0,.821-.036,1.652,0,2.474a4.529,4.529,0,0,0,4.535,4.6c2.178.071,4.369,0,6.548,0H339.747c6.837,0,13.71.209,20.544,0a4.519,4.519,0,0,0,4.562-4.591c.036-.795,0-1.6,0-2.4V196.575c0-2.937.122-5.9,0-8.84-.1-2.44-1.6-4.5-4.16-4.654-.392-.023-.793,0-1.185,0H275.843c-3.088,0-3.094,4.8,0,4.8h83.665a4.781,4.781,0,0,0,.829,0c.524-.1.1-.138.056-.116-.6.316-.126-.427-.34.28a13.935,13.935,0,0,0,0,3.5V383.806c0,.254-.21,2.069,0,2.233-.029-.023.857-.021.484-.218a1.954,1.954,0,0,0-.643,0H11.579c-2.241,0-4.613-.223-6.846,0-.979.1.074.143.12.083.324-.425,0-2.414,0-2.923V190.613c0-.5.315-2.416,0-2.837-.149-.2-.825-.072-.471.1a6.345,6.345,0,0,0,2,0H90.2c3.089,0,3.094-4.8,0-4.8Z"></path><path class="c" d="M235.343,183.081H143.65c-4.242,0-8.521-.164-12.761,0-.058,0-.117,0-.176,0-3.088,0-3.094,4.8,0,4.8h91.693c4.242,0,8.521.164,12.761,0,.058,0,.117,0,.176,0,3.089,0,3.094-4.8,0-4.8Z"></path><path class="c" d="M117.074,180.33c.766,3.831,1.465,7.676,2.235,11.507a6.8,6.8,0,0,0,12.815,1.881c1.2-2.275,1.138-4.7,1.041-7.2a69.713,69.713,0,0,0-1.383-11.724c-1.688-7.933-8.738-12.8-16.442-13.822a36.995,36.995,0,0,0-13.074.71,20.915,20.915,0,0,0-10.245,5.2c-5.706,5.647-5.854,14.35-3.461,21.553.969,2.917,5.606,1.667,4.629-1.276-1.571-4.728-2.207-10.186.479-14.67,3.287-5.485,10.552-6.837,16.447-6.99,6.028-.157,12.635,1.411,15.771,7.077,1.341,2.423,1.664,5.328,2,8.039q.339,2.724.459,5.469c.078,1.728.421,3.794-.451,5.375a3.241,3.241,0,0,1-1.071,1.144,2.446,2.446,0,0,1-1.255.077,1.521,1.521,0,0,1-1.183-.667,5.132,5.132,0,0,1-.529-1.852c-.736-3.7-1.416-7.406-2.155-11.1a2.425,2.425,0,0,0-2.952-1.677,2.449,2.449,0,0,0-1.676,2.953Z"></path><path class="c" d="M119.409,191.052a11.866,11.866,0,0,1-.365,1.6q-.15.4.006.031c-.056.127-.117.252-.182.375-.094.179-.208.345-.308.52q-.237.333.026-.015c-.081.1-.166.193-.254.285-.131.137-.272.26-.412.387.422-.382-.071.034-.2.109s-.734.351-.177.129q-.264.1-.536.183c-.152.044-.905.1-.346.095-.2,0-.4.005-.6-.006.594.031-.188-.077-.333-.116-.447-.123.255.21-.154-.083-.118-.065-.232-.136-.343-.212q.278.231.081.064a6.547,6.547,0,0,1-.516-.511c.325.353-.125-.194-.187-.3-.052-.089-.342-.757-.188-.335a6.277,6.277,0,0,1-.2-.669c-.118-.483-.2-.977-.3-1.464-.206-1.02-.417-2.038-.626-3.057q-.762-3.707-1.48-7.421a2.424,2.424,0,0,0-2.953-1.677,2.452,2.452,0,0,0-1.676,2.953q.655,3.425,1.361,6.839a51.767,51.767,0,0,0,1.171,5.554,7.562,7.562,0,0,0,4.642,4.912,7.013,7.013,0,0,0,6.023-.883,8.614,8.614,0,0,0,3.655-6.014,2.467,2.467,0,0,0-1.676-2.953c-1.136-.258-2.76.348-2.952,1.677Z"></path><path class="c" d="M108.967,191.72a5.828,5.828,0,0,1-.155.763c-.035.123-.074.243-.118.363.126-.281.132-.3.018-.057-.089.162-.181.319-.274.479q-.23.327.055-.046c-.076.093-.155.182-.237.269s-.166.169-.254.248q-.3.256.077-.044a1.381,1.381,0,0,1-.439.277c-.1.055-.2.107-.306.154.312-.13.344-.15.1-.062-.081.016-.41.166-.493.116q.539-.066.132-.037c-.118,0-.237,0-.355,0s-.23-.009-.345-.019c-.272-.029-.224-.022.142.021a3.73,3.73,0,0,1-.47-.108c-.1-.028-.2-.059-.3-.094q-.364-.14.147.066c0-.013-.481-.271-.526-.3-.39-.219.35.351.008.011-.144-.144-.287-.286-.429-.432-.309-.318.24.437-.046-.077-.091-.165-.2-.322-.283-.491-.051-.1-.1-.2-.144-.3q.194.468.051.093c-.12-.375-.226-.749-.313-1.134-.182-.807-.356-1.617-.53-2.426-.435-2.018-.864-4.037-1.326-6.05A2.421,2.421,0,0,0,99.4,181.23a2.454,2.454,0,0,0-1.677,2.952c.418,1.818.808,3.641,1.2,5.463a26.385,26.385,0,0,0,1.214,4.757,7.08,7.08,0,0,0,3.469,3.815,7.288,7.288,0,0,0,6.072.087A7.118,7.118,0,0,0,113.6,193a2.467,2.467,0,0,0-1.676-2.952c-1.137-.259-2.76.348-2.953,1.676Z"></path><path class="c" d="M98.975,190.82a9.8,9.8,0,0,1-.267,1.094c-.029.094-.061.187-.094.28q-.138.36.086-.181c-.07.11-.112.247-.173.363s-.124.224-.192.332c-.334.529.282-.281.016.006-.081.086-.156.175-.241.258-.2.195-.543.3.045,0-.215.109-.447.255-.651.383q-.254.12.3-.122c-.076.03-.152.059-.229.085-.116.04-.234.078-.354.107-.613.151.436.017.023,0-.128,0-.259,0-.387,0-.445,0,.6.159.048,0-.153-.044-.308-.075-.46-.126-.471-.157-.026-.106.06.035-.058-.095-.388-.206-.49-.272-.06-.037-.118-.077-.175-.118-.147-.106-.079-.052.2.16-.029-.1-.283-.26-.359-.341-.393-.42.2.381-.022-.016-.086-.155-.188-.3-.277-.458q-.319-.552-.6-1.125c-.1-.2-.2-.409-.287-.617l-.068-.152q-.156-.363.05.118a5.006,5.006,0,0,1-.417-1.065c-.288-.765-.57-1.532-.876-2.29a2.634,2.634,0,0,0-1.1-1.435,2.451,2.451,0,0,0-1.85-.241,2.424,2.424,0,0,0-1.676,2.952c.6,1.483,1.116,3,1.761,4.46A9.562,9.562,0,0,0,93,196.771a6.554,6.554,0,0,0,4.366,1.445,6.679,6.679,0,0,0,4.05-1.77,7.936,7.936,0,0,0,2.184-4.35,2.4,2.4,0,0,0-4.629-1.276Z"></path><path class="c" d="M244.349,179.054c-.669,3.35-1.294,6.708-1.949,10.061-.211,1.076-.236,2.61-1.13,3.288a2.831,2.831,0,0,1-1.978.223c-1.161-.509-1.649-2.108-1.664-3.317-.023-1.972.087-3.957.25-5.922a38.842,38.842,0,0,1,1.47-8.971c1.963-5.879,8.021-8.555,13.808-8.882,6.079-.344,13.76.55,18.064,5.349,4.017,4.479,3.377,11.053,1.643,16.271-.976,2.938,3.658,4.2,4.629,1.276,2.041-6.145,2.384-13.641-1.484-19.171-4.831-6.908-14.1-8.814-22.063-8.56s-15.766,3.744-18.876,11.5c-1.36,3.391-1.666,7.381-1.975,10.991-.371,4.329-1.065,9.676,2.673,12.8A6.831,6.831,0,0,0,246.456,193a44.332,44.332,0,0,0,1.181-5.763c.442-2.3.881-4.609,1.341-6.909a2.462,2.462,0,0,0-1.676-2.953,2.425,2.425,0,0,0-2.953,1.677Z"></path><path class="c" d="M242.014,192.328c.626,4.341,4.448,7.966,9.009,7.081a7.069,7.069,0,0,0,4.867-3.99,27.717,27.717,0,0,0,1.449-5.849c.524-2.547,1.039-5.1,1.528-7.65a2.4,2.4,0,1,0-4.629-1.276q-.711,3.716-1.48,7.421-.314,1.529-.627,3.057c-.091.449-.172.9-.273,1.347a6.3,6.3,0,0,1-.227.786c.154-.422-.136.246-.188.335-.063.1-.512.652-.187.3-.142.154-.29.3-.439.444q-.314.267,0,0c-.111.076-.225.147-.343.212-.421.3.34-.053-.155.083-.144.039-.926.147-.333.116-.2.011-.4.008-.6.006.547.007-.1-.029-.253-.07a5.771,5.771,0,0,1-.628-.208c.537.213.021-.014-.1-.082s-.71-.549-.275-.156c-.14-.127-.281-.25-.412-.387-.088-.092-.173-.187-.254-.285q.262.348.026.015c-.1-.176-.214-.34-.309-.52-.064-.123-.125-.248-.182-.375q.157.368.006-.031a13.9,13.9,0,0,1-.364-1.6,2.416,2.416,0,0,0-2.953-1.677,2.464,2.464,0,0,0-1.676,2.953Z"></path><path class="c" d="M252.456,193a6.993,6.993,0,0,0,13.126,2.151,18.742,18.742,0,0,0,1.379-4.724c.449-2.082.891-4.165,1.367-6.241a2.4,2.4,0,0,0-4.628-1.276c-.455,1.981-.878,3.968-1.305,5.954-.181.841-.362,1.683-.552,2.522-.087.386-.2.756-.312,1.134q-.144.375.051-.093c-.045.1-.093.2-.144.3-.087.169-.192.326-.284.491-.286.514.264-.241-.046.077-.141.146-.283.289-.428.432-.351.344.435-.253.008-.011-.045.025-.527.283-.526.3q.512-.205.147-.066c-.1.035-.2.066-.3.094a2.449,2.449,0,0,1-.47.108c.367-.043.414-.05.143-.021-.115.01-.23.016-.345.019-.1,0-.753.075-.374.015q.309.05-.015-.009c-.11-.024-.22-.052-.328-.085-.248-.088-.216-.068.1.062-.105-.047-.207-.1-.307-.154s-.365-.163-.438-.277q.378.3.076.044c-.087-.079-.172-.162-.253-.248s-.162-.176-.237-.269q.283.374.055.046c-.086-.161-.184-.321-.275-.479-.114-.244-.107-.224.019.057-.044-.12-.083-.24-.118-.363a5.83,5.83,0,0,1-.156-.763,2.406,2.406,0,0,0-2.952-1.676A2.475,2.475,0,0,0,252.456,193Z"></path><path class="c" d="M262.448,192.1c.538,2.791,2.339,5.418,5.286,5.994a6.536,6.536,0,0,0,4.726-.887,8.591,8.591,0,0,0,3.024-3.776c.775-1.623,1.334-3.333,2.008-5a2.412,2.412,0,0,0-.242-1.85,2.4,2.4,0,0,0-4.387.574c-.307.758-.588,1.525-.877,2.29a4.891,4.891,0,0,1-.416,1.065q.189-.442.082-.194c-.033.076-.066.153-.1.228-.092.208-.188.413-.287.617q-.26.531-.553,1.042c-.1.183-.223.358-.324.541-.226.41.339-.338.026-.036-.07.067-.391.31-.408.393.03-.15.459-.315.031-.042-.139.089-.286.158-.428.241-.166.08-.08.047.256-.1-.085.034-.171.066-.259.095-.129.043-.26.081-.393.112-.643.149.391.011-.019.012-.126,0-.26,0-.386,0-.44.015.6.171.082.013-.138-.042-.277-.074-.414-.121-.412-.142-.038-.061.125.063a4.993,4.993,0,0,0-.7-.409c.588.3.243.2.044,0-.084-.083-.16-.172-.24-.258-.287-.31.315.518.05.047-.073-.13-.157-.253-.226-.385-.059-.113-.1-.257-.174-.363q.225.541.086.181c-.033-.093-.064-.186-.094-.28a10.02,10.02,0,0,1-.266-1.094,2.415,2.415,0,0,0-2.953-1.676,2.462,2.462,0,0,0-1.676,2.952Z"></path><path class="c" d="M147.228,61.6a8.666,8.666,0,0,0-9.423-1.41,8.239,8.239,0,0,0-4.319,5.556,20.942,20.942,0,0,0,3.048,16.532c2.132,3.172,5.488,6.024,9.567,5.495a2.478,2.478,0,0,0,2.4-2.4,2.413,2.413,0,0,0-2.4-2.4c-2.969.385-4.934-2.066-6.222-4.441a17.082,17.082,0,0,1-2.088-6.5c-.193-2.259-.151-4.919,1.127-6.8-.365.536.616-.563.357-.368a2.979,2.979,0,0,1,1.275-.58,3.651,3.651,0,0,1,3.284.711c2.3,2.051,5.7-1.333,3.394-3.394Z"></path><path class="c" d="M175.851,95.788a15.546,15.546,0,0,0,7.484,1.743,12.291,12.291,0,0,0,7.657-2.3,2.4,2.4,0,0,0,0-3.394,2.475,2.475,0,0,0-3.394,0c.82-.639-.1.028-.36.167-.205.107-.767.274-.038.041-.208.067-.408.157-.616.224a14.879,14.879,0,0,1-1.723.393s.531-.059-.025,0c-.169.017-.338.031-.508.042-.408.026-.816.036-1.225.034-.366,0-.731-.015-1.1-.04-.167-.011-.335-.024-.5-.041-.095-.01-.191-.02-.286-.032q-.279-.033.183.024a4.816,4.816,0,0,1-1.61-.357c-.225-.068-.445-.149-.668-.225-.559-.191.475.231-.032-.008q-.414-.2-.818-.409a2.4,2.4,0,0,0-2.422,4.145Z"></path><path class="c" d="M181.876,78.466a33.79,33.79,0,0,1,.8,3.648l-.085-.638a2.238,2.238,0,0,1,.013.5l.086-.638a1.242,1.242,0,0,1-.055.226l.242-.573a.983.983,0,0,1-.08.146l.375-.486a.775.775,0,0,1-.119.117l.486-.375a2.5,2.5,0,0,1-.289.153l.573-.242a2.125,2.125,0,0,1-.487.142l.638-.086a1.941,1.941,0,0,1-.457,0l.638.085c-.172-.024-.342-.066-.514-.089a1.823,1.823,0,0,0-.957-.043,1.794,1.794,0,0,0-.892.285,2.4,2.4,0,0,0-.861,3.284,2.3,2.3,0,0,0,1.434,1.1c.439.059.865.169,1.313.189a4.285,4.285,0,0,0,1.994-.483,3,3,0,0,0,1.626-1.96,4.7,4.7,0,0,0-.018-2.052c-.2-1.175-.47-2.34-.772-3.493a2.476,2.476,0,0,0-1.1-1.434,2.4,2.4,0,0,0-3.284.861,2.523,2.523,0,0,0-.242,1.849Z"></path><path class="c" d="M163.022,68c-.61,1.979-.213,6.533,3.538,6.921,4.957-.03,5.221-5.536,3.552-8.124C168.746,64.672,164.729,63.79,163.022,68Z"></path><path class="c" d="M202.87,68c.61,1.98.213,6.534-3.538,6.921-4.957-.03-5.221-5.536-3.552-8.125C197.146,64.672,201.163,63.791,202.87,68Z"></path><path class="c" d="M220.805,64.991a3.613,3.613,0,0,1,3.117-.747,3.112,3.112,0,0,1,1.443.616c-.27-.2.716.9.356.368,1.277,1.882,1.321,4.534,1.127,6.8a17.082,17.082,0,0,1-2.088,6.5c-1.287,2.375-3.252,4.827-6.222,4.441a2.412,2.412,0,0,0-2.4,2.4,2.46,2.46,0,0,0,2.4,2.4c6.659.864,10.732-6.348,12.394-11.726,1.485-4.8,1.455-12.316-3.252-15.4a8.619,8.619,0,0,0-10.269.953c-2.309,2.061,1.095,5.446,3.394,3.394Z"></path><path class="c" d="M211.569,11.641C200.952-.035,183.061-2.2,168.438,1.935a45.4,45.4,0,0,0-19.584,11.278,43.118,43.118,0,0,0-4.049,4.668c-.961,1.284-2.1,2.418-3.02,3.749a37.246,37.246,0,0,0-4.742,10.229,55.818,55.818,0,0,0-.325,29.481c.76,2.992,5.39,1.724,4.628-1.276a51.838,51.838,0,0,1-.5-23.864,37.593,37.593,0,0,1,3.691-9.9,21.719,21.719,0,0,1,2.4-3.57c1.138-1.329,2.188-2.724,3.346-4.039a44.437,44.437,0,0,1,3.7-3.728,26.6,26.6,0,0,1,3.437-2.633,43.044,43.044,0,0,1,9.455-4.857A47.6,47.6,0,0,1,187.953,5.2a31.256,31.256,0,0,1,20.222,9.837c2.083,2.29,5.47-1.112,3.394-3.394Z"></path><path class="c" d="M227.738,61.34a55.208,55.208,0,0,0,1.724-11.448,67.227,67.227,0,0,0-.758-11.319,35.13,35.13,0,0,0-5.474-15.215,38.163,38.163,0,0,0-5.786-6.5c-2.282-2.073-5.686,1.311-3.394,3.394a28.747,28.747,0,0,1,7.7,10.377c2.228,5.5,2.866,11.689,2.925,17.58a47.677,47.677,0,0,1-1.569,11.85c-.733,3,3.895,4.28,4.629,1.276Z"></path><path class="c" d="M181.651,35.5c-3.2-.209-6.416-.161-9.616-.1a55.664,55.664,0,0,0-9.3.637,10.106,10.106,0,0,0-5.661,2.965,18.582,18.582,0,0,0-2.975,5.316,14.725,14.725,0,0,1-2.823,4.4c-1.195,1.282-2.45,2.49-3.516,3.887-2.638,3.456-2.842,8.186-3.361,12.364a2.413,2.413,0,0,0,2.4,2.4,2.46,2.46,0,0,0,2.4-2.4c.2-1.6.451-3.187.726-4.774a10.418,10.418,0,0,1,1.418-4.4c1.8-2.654,4.559-4.482,6.111-7.352.876-1.62,1.4-3.408,2.316-5.009a5.37,5.37,0,0,1,3.852-2.685,41.147,41.147,0,0,1,7.915-.534c3.366-.076,6.755-.134,10.118.086a2.4,2.4,0,0,0,0-4.8Z"></path><path class="c" d="M198.858,42.826c.51.2.615.238.972.4q.643.288,1.274.606a25.956,25.956,0,0,1,2.447,1.412,16.314,16.314,0,0,1,1.916,1.417,23.728,23.728,0,0,1,2.132,2.051c2.366,2.577,3.821,5.91,5.058,9.19a2.469,2.469,0,0,0,2.953,1.676,2.419,2.419,0,0,0,1.676-2.952c-1.552-4.115-3.29-8.038-6.293-11.308A28.417,28.417,0,0,0,200.134,38.2a2.418,2.418,0,0,0-2.952,1.676,2.455,2.455,0,0,0,1.676,2.952Z"></path><path class="c" d="M194.04,38.82a11.206,11.206,0,0,0-3.659-6.067,16.628,16.628,0,0,0-9.49-4.08,2.406,2.406,0,0,0-2.4,2.4,2.471,2.471,0,0,0,2.4,2.4c.273.033.235.026-.115-.019.114.016.228.033.341.052.168.028.335.058.5.092q.564.113,1.118.268.53.149,1.046.338c.095.035.191.071.285.108q.36.145-.155-.069a2.113,2.113,0,0,0,.405.182,13.14,13.14,0,0,1,1.718.972c.13.088.256.181.385.27.47.324-.364-.3-.016-.017.229.19.457.379.675.582a13.565,13.565,0,0,1,1.14,1.22c.288.341-.355-.488-.1-.13.085.118.171.235.253.356q.205.3.389.62.173.3.321.61c.041.085.075.173.117.256-.377-.747-.149-.359-.074-.155a5.84,5.84,0,0,1,.286,1.087,2.409,2.409,0,0,0,2.953,1.676,2.471,2.471,0,0,0,1.676-2.952Z"></path><path class="c" d="M143.456,82.54c4.005,12.924,13.053,25.294,26.528,29.275a52.18,52.18,0,0,0,11.071,1.865,34.056,34.056,0,0,0,11.773-1.359,38.787,38.787,0,0,0,16.669-9.843,48.4,48.4,0,0,0,11.58-19.938c.916-2.958-3.716-4.223-4.628-1.276-3.526,11.393-11.212,21.638-22.739,25.726a33.089,33.089,0,0,1-9.665,1.887,42.642,42.642,0,0,1-10.365-1.09,29.939,29.939,0,0,1-15.535-8.914,43.537,43.537,0,0,1-10.06-17.609c-.911-2.942-5.546-1.687-4.629,1.276Z"></path></svg>