<svg xmlns="http://www.w3.org/2000/svg" width="266.278" height="349.861" viewBox="0 0 266.278 349.861"><defs><style>.a{fill:#fff;}.b{fill:#fcdc4a;}.c{fill:#211916;}.d{fill:#211715;}.e{fill:#231815;}</style></defs><path class="a" d="M186.677,88.2a8.036,8.036,0,0,1,6.432-1.882,7.59,7.59,0,0,1,5.458,3.628,10.728,10.728,0,0,1,1.124,4.318,32.158,32.158,0,0,1-3.279,17.048,20.449,20.449,0,0,1-5.286,6.938,13.544,13.544,0,0,1-6.3,2.84l-1.07.165c-.529,1.946-1.108,3.571-1.392,4.434-1.8,4.883-11.7,21.545-24.267,28.122.976,4.281.187,8.266,6.055,10.385.356.128,6.407,2.488,6.952,2.712,0,0,4.148,37.567-39.186,37.567-45.777,0-33.826-38.975-33.826-38.975,1.036-.353,3.539-1.176,3.895-1.3,5.433-1.962,5.159-6.356,5.863-10.254A47.712,47.712,0,0,1,93.118,141.75,54.7,54.7,0,0,1,82.694,121.4l-2.054-.314a13.545,13.545,0,0,1-6.3-2.84,20.437,20.437,0,0,1-5.286-6.938,32.158,32.158,0,0,1-3.279-17.048A10.727,10.727,0,0,1,66.9,89.943a7.592,7.592,0,0,1,5.458-3.628A8.037,8.037,0,0,1,78.787,88.2s-6.205-47.059,54.24-47.059S186.677,88.2,186.677,88.2Z"></path><path class="a" d="M52.33,333.491c-16.117-3.144-45.134-19.875-47.5-24.279C1.05,302.2,2.151,291.329,4.9,281.969c7.364-25.038,12.127-36.48,20.576-61.209,2.743-8.029,5.772-19.94,11.974-25.88,4.11-3.937,12.54-8.549,17.783-10.878,14.876-6.608,28.583-12.11,42.874-18.249l.326-.14a280.718,280.718,0,0,0,10.376,33.76c8.986,23.436,21.659,49.742,28.005,63.447l.431.7c7.148-17.388,16.1-42.541,22.5-63.885,4.25-14.18,6.882-27.66,8.149-34l.268.115c14.291,6.139,28,11.641,42.874,18.249,5.244,2.329,13.674,6.941,17.783,10.878,6.2,5.94,9.231,17.851,11.975,25.88,8.449,24.729,13.211,36.171,20.575,61.209,2.753,9.36,3.854,20.234.08,27.243-2.371,4.4-31.388,21.135-47.505,24.279Z"></path><path class="a" d="M128.417,288.146a66.27,66.27,0,0,1,2.433-10.724c7.262-14.563,20.356-49.846,28.9-78.339a349.108,349.108,0,0,0,8.28-35.5c3.7,0,18.651,19.474,21.294,26.338.178.462-6.637,8.543-10.145,11.567,1.5,1.11,7.754,8.473,7.879,9.3.092.611-30.2,51.525-46.976,76.794"></path><path class="a" d="M130.85,276.841c-19.392-23.326-51.975-68.877-51.889-69.45.11-.731,5.283-6.855,7.078-8.465-3.359-3.013-9.363-10.15-9.2-10.571,2.477-6.43,17.607-24.772,21.077-24.772a264.054,264.054,0,0,0,10.9,35.79c8.986,23.436,21.659,49.742,28.005,63.447"></path><path class="a" d="M133.2,216.161c-37.437.271-74.692.488-87.92.533a3.8,3.8,0,0,0-3.792,3.82c.077,21.492,1.114,95.872,1.9,123.211a3.809,3.809,0,0,0,3.874,3.7c11.954-.184,48.981-.071,85.935.056,36.954-.127,73.98-.24,85.935-.056a3.809,3.809,0,0,0,3.874-3.7c.789-27.339,1.826-101.719,1.9-123.211a3.8,3.8,0,0,0-3.792-3.82C207.894,216.649,170.638,216.432,133.2,216.161Z"></path><path class="b" d="M115.679,216.284c5.775-.039,11.646-.081,17.523-.123,7.1.051,14.187.1,21.109.147,1.933-5.863,3.772-11.674,5.436-17.225,1.18-3.937,2.216-7.763,3.118-11.364l-.333.1s-7.154,3.457-20.183,4.622c-2.639.236-5.52.377-8.63.377-18.467,0-28.814-5-28.814-5l-.249-.117c1.231,3.725,2.618,7.659,4.157,11.673C110.939,204.918,113.272,210.623,115.679,216.284Z" style="fill: rgb(89, 55, 25);"></path><path class="b" d="M159.073,53.745c1.906,6.334,4.868,14.479,7.068,18.12,3,4.962,11.142,15.8,18.914,18.744,1.086-3.068,4.737-4.79,8.054-4.294a6.652,6.652,0,0,1,1,.226c4.528-10.418,2.243-28.029.434-36.812C188.956,22.518,161.344.918,132.388,2.5,103.432.918,75.821,22.518,70.23,49.729c-1.515,7.339-1.333,19.895.044,25.754l2.167,10.826A7.623,7.623,0,0,1,80.1,89.856c10.931-8.272,30.105-20.214,39.594-28.1-.827,4.96-3.765,13.4-.064,12.53C135.17,70.8,150.061,63.767,159,52.776" style="fill: rgb(89, 55, 25);"></path><path class="b" d="M107.4,156.882c.156-.982.271-1.977.445-2.943-.106-.054-.21-.118-.316-.173-.389-.2-.775-.417-1.159-.635-.316-.179-.63-.361-.943-.55q-.53-.319-1.053-.658-.5-.327-1-.671c-.325-.224-.649-.451-.971-.686-.35-.255-.7-.521-1.042-.789-.3-.233-.6-.466-.9-.709-.36-.294-.716-.6-1.072-.909-.278-.241-.557-.478-.831-.727-.375-.339-.744-.694-1.113-1.049-.249-.239-.5-.472-.747-.718-.408-.408-.809-.834-1.21-1.26-.2-.214-.405-.418-.6-.636q-.9-.981-1.766-2.019-1.03-1.235-1.951-2.5c-.29-.4-.547-.8-.822-1.205-.307-.448-.63-.893-.918-1.345-.392-.613-.747-1.231-1.105-1.849-.142-.244-.3-.487-.437-.732-.258-.463-.486-.926-.727-1.39-.209-.4-.434-.8-.63-1.2-.316-.645-.6-1.289-.884-1.932-.1-.218-.207-.437-.3-.654-.23-.538-.431-1.07-.641-1.6-.125-.32-.265-.643-.384-.96-.162-.434-.3-.86-.45-1.289-.142-.41-.3-.824-.429-1.23-.124-.381-.228-.752-.343-1.129-.134-.442-.279-.889-.4-1.324l-1.962-.3-.093-.015a13.545,13.545,0,0,1-6.3-2.84c-.306-.248-.6-.507-.883-.773-.012-.012-.026-.022-.038-.033a27.02,27.02,0,0,0-3.035,9.638,43.958,43.958,0,0,0-.3,6.1c.075,4.838,1.294,9.789,1.538,14.627.225,4.838-1.781,10.37-6.376,11.927-2.091,3.368,15.4,10.4,30.465,5.05A27.619,27.619,0,0,0,107.4,156.882Z" style="fill: rgb(89, 55, 25);"></path><path class="c" d="M99.036,167.714c1.307-.45,2.645-.835,3.932-1.34a10.507,10.507,0,0,0,4.79-3.532c1.758-2.378,1.9-5.342,2.384-8.144a2.458,2.458,0,0,0-1.676-2.953,2.431,2.431,0,0,0-2.953,1.676c-.22,1.275-.346,2.564-.605,3.832a12.487,12.487,0,0,1-.467,1.72c-.075.208-.362.652.008.014-.084.144-.142.308-.22.457-.139.265-.3.513-.463.765-.219.342.394-.458-.026.032-.087.1-.178.2-.271.3q-.192.2-.4.38c-.071.062-.144.123-.218.183q.446-.339.136-.111c-.307.2-.607.4-.931.568a3.275,3.275,0,0,1-.609.292l.246-.106c-.113.045-.228.089-.342.13-1.188.428-2.4.8-3.59,1.21a2.4,2.4,0,1,0,1.276,4.629Z"></path><path class="c" d="M155.993,155.518c.214,1.23.341,2.479.621,3.7a10.117,10.117,0,0,0,1.934,4.067,10.321,10.321,0,0,0,4.3,2.962c1.419.583,2.863,1.113,4.294,1.669a2.41,2.41,0,0,0,2.952-1.676,2.469,2.469,0,0,0-1.676-2.953c-1.322-.513-2.635-1.057-3.97-1.537-.249-.1-.219-.086.093.043-.1-.045-.2-.091-.3-.138-.144-.068-.287-.14-.427-.215a10.787,10.787,0,0,1-.993-.615c-.364-.248.405.357.064.045-.126-.115-.256-.224-.377-.344-.088-.087-.173-.176-.256-.267-.156-.174-.365-.605,0,.024-.134-.233-.3-.443-.434-.68-.073-.132-.137-.269-.206-.4-.2-.393.217.574.064.159a12.017,12.017,0,0,1-.478-1.643c-.245-1.147-.37-2.316-.571-3.472a2.411,2.411,0,0,0-2.952-1.676,2.468,2.468,0,0,0-1.677,2.953Z"></path><path class="c" d="M174.345,170.971c8.17,3.448,16.364,6.838,24.516,10.327,7.246,3.1,14.548,6.107,21.294,10.219a35.3,35.3,0,0,1,7.755,5.863,29.905,29.905,0,0,1,4.958,8.109c2.894,6.422,4.718,13.338,7.014,19.986,4.782,13.844,9.887,27.579,14.377,41.523q1.844,5.723,3.571,11.483a95.324,95.324,0,0,1,3.073,12.184,38.868,38.868,0,0,1,.35,11.08A20.524,20.524,0,0,1,260,306.69c-.2.49-.507.942-.693,1.431-.129.337-.114.147.1-.095-.113.13-.222.263-.339.389a16.844,16.844,0,0,1-1.8,1.63c-.114.092-.548.433-.437.347s-.368.276-.5.373q-.72.531-1.455,1.04c-2.457,1.708-5.009,3.281-7.592,4.791a169.811,169.811,0,0,1-19.424,9.8q-2.327.984-4.7,1.863a2.465,2.465,0,0,0-1.676,2.952,2.419,2.419,0,0,0,2.952,1.676,161.417,161.417,0,0,0,20.793-9.625,102.532,102.532,0,0,0,15.347-9.761,11.169,11.169,0,0,0,3.473-4.161,28.091,28.091,0,0,0,2.225-11.25c.081-8.547-2.519-16.705-5-24.782-4.41-14.348-9.532-28.446-14.5-42.606-2.565-7.311-4.825-14.742-7.485-22.017-2.39-6.535-5.361-13-10.97-17.375-5.964-4.653-12.8-7.96-19.692-10.981-8.538-3.74-17.142-7.329-25.739-10.933q-3.061-1.282-6.122-2.572a2.483,2.483,0,0,0-3.284.861,2.416,2.416,0,0,0,.861,3.283Z"></path><path class="c" d="M88.8,167.125c-8.452,3.559-16.925,7.068-25.351,10.69-7.389,3.176-14.794,6.3-21.562,10.7a32.861,32.861,0,0,0-7.774,6.468,37.86,37.86,0,0,0-5.3,9.111c-2.951,6.876-4.978,14.136-7.425,21.2-4.934,14.243-10.18,28.378-14.741,42.748C4.08,276.126,1.228,284.277.286,292.75A38.1,38.1,0,0,0,.648,304.5c.524,2.6,1.4,5.447,3.262,7.408a32.713,32.713,0,0,0,5.16,4.1c2.513,1.74,5.121,3.343,7.763,4.879A175.233,175.233,0,0,0,37.01,330.973q2.515,1.059,5.073,2.008a2.42,2.42,0,0,0,2.952-1.676,2.451,2.451,0,0,0-1.676-2.952,151.187,151.187,0,0,1-19.449-8.991c-2.951-1.6-5.864-3.274-8.708-5.057-1.176-.738-2.341-1.494-3.486-2.281-.466-.321-.93-.646-1.389-.979-.228-.166-.454-.334-.68-.5a4.271,4.271,0,0,1-.4-.308,19.578,19.578,0,0,1-1.892-1.667c-.111-.115-.214-.24-.327-.353-.278-.279-.016-.116.08.116-.2-.478-.533-.926-.74-1.41A24.029,24.029,0,0,1,4.8,297.083c.132-8.187,2.814-16.005,5.212-23.747,4.248-13.718,9.145-27.209,13.9-40.755,2.494-7.1,4.751-14.282,7.252-21.378,2.111-5.988,4.663-12.144,9.778-16.181,5.584-4.409,12.2-7.506,18.674-10.348,8.1-3.553,16.253-6.964,24.407-10.381q3.025-1.267,6.049-2.54a2.481,2.481,0,0,0,1.676-2.952,2.414,2.414,0,0,0-2.952-1.676Z"></path><path class="c" d="M224.777,193c-1.28,7.929-2.827,15.825-4.428,23.7a2.458,2.458,0,0,0,1.676,2.952,2.423,2.423,0,0,0,2.952-1.676c1.6-7.87,3.149-15.766,4.429-23.695a2.474,2.474,0,0,0-1.677-2.952A2.419,2.419,0,0,0,224.777,193Z"></path><path class="c" d="M103.694,189.889c5.834,2.8,12.6,3.955,18.963,4.7a90.025,90.025,0,0,0,34.716-2.411,39.933,39.933,0,0,0,6.37-2.288,2.422,2.422,0,0,0,.861-3.284,2.451,2.451,0,0,0-3.283-.861c-.093.045-.188.086-.282.129-.2.089-.645.232.184-.075-.186.069-.368.151-.553.224-1.114.441-2.25.826-3.395,1.178a70.713,70.713,0,0,1-12.687,2.61,86.5,86.5,0,0,1-33.134-2.23c-1.469-.415-2.925-.88-4.35-1.426-.212-.082-.422-.167-.634-.251-.64-.252.4.193.04.019-.129-.063-.264-.115-.393-.178a2.466,2.466,0,0,0-3.284.861,2.422,2.422,0,0,0,.861,3.284Z"></path><path class="c" d="M177.8,203.453a37.894,37.894,0,0,1,2.934,3.1q.909,1.035,1.791,2.094.42.5.832,1.014.192.239.382.479c.048.06.434.557.165.208s.087.115.134.178q.142.191.282.382c.148.205.3.411.428.626.246.4.138.428-.016-.136a2.3,2.3,0,0,1,.182-1.647c-.04.066-.068.142-.1.211-.925,1.738-1.922,3.437-2.912,5.139a2.4,2.4,0,0,0,4.145,2.422c.907-1.559,1.824-3.116,2.681-4.7a6.946,6.946,0,0,0,.632-1.348,2.869,2.869,0,0,0-.372-2.208,21.659,21.659,0,0,0-2.135-2.874c-.917-1.142-1.865-2.26-2.833-3.357a37.075,37.075,0,0,0-2.822-2.976,2.4,2.4,0,0,0-3.394,3.394Z"></path><path class="c" d="M168.365,164.986c.156.005-.693-.167-.146.009.317.1-.292-.127-.291-.126a3.367,3.367,0,0,0,.3.16c.166.106.333.209.5.318.6.4-.189-.2.309.24a36.6,36.6,0,0,1,2.839,2.8,91.222,91.222,0,0,1,6.609,8.3c2.149,2.988,4.206,6.051,6.077,9.221.742,1.258,1.462,2.534,2.09,3.854.112.237.219.476.327.715.126.28-.068-.532-.028-.062,0,.013-.061-1.291.246-1.529a7.374,7.374,0,0,0-.846,1.237c-.245.326.367-.459-.1.123-.155.194-.31.389-.467.582q-.483.6-.978,1.184-1.119,1.331-2.28,2.624a65.028,65.028,0,0,1-4.729,4.866c-2.295,2.077,1.108,5.464,3.394,3.394a75.841,75.841,0,0,0,8.6-9.438c.954-1.217,2.263-2.567,1.814-4.249a19.334,19.334,0,0,0-1.95-4.066,110.477,110.477,0,0,0-13.9-19.615c-1.83-2.063-4.376-5.24-7.391-5.347-3.089-.111-3.084,4.689,0,4.8Z"></path><path class="c" d="M166.051,161.947c-2.7,13.194-5.5,26.291-9.432,39.189q-2.2,7.2-4.559,14.349c-.968,2.941,3.666,4.2,4.628,1.276a406.062,406.062,0,0,0,12.641-46.718c.458-2.271.885-4.549,1.351-6.819A2.46,2.46,0,0,0,169,160.271a2.424,2.424,0,0,0-2.952,1.676Z"></path><path class="c" d="M84.342,197.229a54.012,54.012,0,0,0-6.274,7.181c-.775,1.01-1.844,2.258-1.417,3.639a10.866,10.866,0,0,0,1.615,2.7c1.446,2.117,2.929,4.209,4.414,6.3a2.467,2.467,0,0,0,3.284.861,2.42,2.42,0,0,0,.861-3.284c-1.536-2.161-3.072-4.324-4.564-6.517-.351-.515-.691-1.036-1.031-1.559a2.282,2.282,0,0,0-.128-.214c-.014-.024-.027-.049-.039-.074a2.282,2.282,0,0,1,.22,1.738c-.152.565-.227.471.04.058.164-.254.344-.5.524-.741.084-.113.517-.665.09-.123.141-.179.281-.359.424-.537.6-.755,1.223-1.5,1.852-2.23a41.942,41.942,0,0,1,3.523-3.8,2.4,2.4,0,1,0-3.394-3.394Z"></path><path class="c" d="M97.772,160.186c-2.537.093-4.7,2.427-6.363,4.1a92.594,92.594,0,0,0-7.36,8.585,113.526,113.526,0,0,0-6.8,9.62,36.461,36.461,0,0,0-2.118,3.8c-.7,1.511-.9,2.666.089,4.079a62.9,62.9,0,0,0,9.123,10.25c2.285,2.07,5.69-1.315,3.394-3.394A73.508,73.508,0,0,1,80,188.786q-.148-.186-.3-.375c.258.332-.011-.014-.074-.1-.148-.2-.286-.407-.434-.606-.045-.06-.082-.149-.133-.207-.193-.216.059-.2,0,.063l.095.228q-.153,1.642.1.936c.066.108-.238.5.015-.007.573-1.16,1.192-2.287,1.866-3.393a102.07,102.07,0,0,1,12.423-16.348,37.337,37.337,0,0,1,3.253-3.174c.132-.111.266-.22.4-.328-.266.215-.244.167.017,0,.192-.127.381-.256.575-.38.327-.209.566-.205.029-.061.6-.16-.031-.044-.066-.042,3.079-.114,3.094-4.915,0-4.8Z"></path><path class="c" d="M95.457,163.224A253.933,253.933,0,0,0,107.7,203.117c1.854,4.72,3.793,9.406,5.772,14.074a2.414,2.414,0,0,0,3.284.861,2.464,2.464,0,0,0,.861-3.283,319.663,319.663,0,0,1-15.793-45.481c-.623-2.436-1.22-4.881-1.742-7.341-.641-3.02-5.269-1.742-4.629,1.277Z"></path><path class="c" d="M224.668,290.407c.594.037,1.185.105,1.776.183l-.638-.086c2.029.274,4.042.655,6.067.957a2.63,2.63,0,0,0,1.85-.242,2.4,2.4,0,0,0,.861-3.284,2.316,2.316,0,0,0-1.435-1.1c-2.817-.419-5.634-1.046-8.481-1.225a2.415,2.415,0,0,0-2.4,2.4,2.455,2.455,0,0,0,2.4,2.4Z"></path><path class="c" d="M36.87,194.28c1.238,7.674,2.733,15.316,4.273,22.934a2.4,2.4,0,0,0,4.629-1.276c-1.54-7.618-3.035-15.26-4.274-22.934a2.418,2.418,0,0,0-2.952-1.676,2.458,2.458,0,0,0-1.676,2.952Z"></path><path class="c" d="M41.607,285.607c-2.847.179-5.664.806-8.481,1.225a2.4,2.4,0,0,0-1.434,1.1,2.451,2.451,0,0,0-.242,1.85,2.422,2.422,0,0,0,1.1,1.434,2.788,2.788,0,0,0,1.849.242c2.025-.3,4.038-.683,6.068-.957l-.638.086c.59-.078,1.181-.146,1.775-.183a2.4,2.4,0,1,0,0-4.8Z"></path><path class="d" d="M71.345,116.228a34.629,34.629,0,0,0-3.6,18.585c.227,3.568.925,7.083,1.288,10.637a16.685,16.685,0,0,1-.6,7.679,7.154,7.154,0,0,1-3.828,4.286c-2.081.9-2.4,3.282-1.241,5.086a9.771,9.771,0,0,0,3.994,3.153,30.807,30.807,0,0,0,6.575,2.311,41.509,41.509,0,0,0,20.388-.241c2.975-.817,1.712-5.449-1.276-4.629a36.329,36.329,0,0,1-18.337.119,21.445,21.445,0,0,1-5.98-2.273c-.187-.111-.366-.231-.551-.346-.109-.067-.582-.445-.147-.088a6.9,6.9,0,0,1-.721-.689c.194.212.213.359.057.037-.177-.365.153.46.077.192a1.688,1.688,0,0,1-.128.894l-1.434,1.1a11.928,11.928,0,0,0,7.063-7.326c1.411-3.689,1.133-7.558.633-11.393-.592-4.533-1.29-8.974-1.036-13.563a26.457,26.457,0,0,1,2.944-11.111c1.458-2.723-2.684-5.15-4.145-2.423Z"></path><path class="d" d="M72.588,74.845a49.645,49.645,0,0,1-.991-9.807,82.111,82.111,0,0,1,.46-11.66,49.792,49.792,0,0,1,7.169-19.82,61.114,61.114,0,0,1,34.1-26.317,55.34,55.34,0,0,1,10.754-2.172c3.836-.365,7.722-.272,11.569-.253a56.4,56.4,0,0,1,21.665,4.535,60.863,60.863,0,0,1,31.127,29.578,63.542,63.542,0,0,1,5.105,19.355c.926,7.378,1.438,15.2-.156,22.527a28.5,28.5,0,0,1-1.557,5,2.415,2.415,0,0,0,1.677,2.952,2.463,2.463,0,0,0,2.952-1.676c3.053-7.261,3.009-15.786,2.42-23.509-.55-7.219-1.552-14.674-4-21.52-5.33-14.94-16.735-27.407-30.728-34.747A63.694,63.694,0,0,0,141.228.323,112.391,112.391,0,0,0,129.305.016a60.116,60.116,0,0,0-12.059,1.275A66.054,66.054,0,0,0,78.113,26.635,57.88,57.88,0,0,0,68.255,47.56a70.964,70.964,0,0,0-1.07,23.6,42.517,42.517,0,0,0,.775,4.958c.689,3.01,5.318,1.736,4.628-1.276Z"></path><path class="d" d="M156.758,54.383c1.143,3.777,2.413,7.52,3.86,11.192A48.456,48.456,0,0,0,164.643,74a61.961,61.961,0,0,0,12.248,14.3c2.753,2.288,5.871,4.409,9.424,5.179,3.011.653,4.3-3.974,1.276-4.629-5.529-1.2-10.115-6.164-13.685-10.37a49.1,49.1,0,0,1-8.369-13.454c-1.573-3.9-2.932-7.9-4.15-11.921-.892-2.949-5.527-1.692-4.629,1.276Z"></path><path class="d" d="M157.3,51.078a55.3,55.3,0,0,1-19.054,14.37,82.412,82.412,0,0,1-11.631,4.5q-3.176.975-6.411,1.738l-.607.142-.2.046q-.678.128-.272.078c.056-.1-.064-.036.135.011a1.609,1.609,0,0,1,.487.159,1.731,1.731,0,0,1,.476.478c-.231-.263.009.067.053.148a1.244,1.244,0,0,1-.082-.343c0,.359.009.2.016-.065.088-3.179,1.219-6.585,1.8-9.952A2.422,2.422,0,0,0,118,60.056c-4.805,3.98-10.039,7.546-15.213,11.1-5.9,4.053-11.861,8.024-17.717,12.143-2.895,2.036-5.76,4.116-8.543,6.3a2.414,2.414,0,0,0,0,3.394,2.46,2.46,0,0,0,3.394,0c10.444-8.217,22.246-15.357,33.158-23.207,2.829-2.035,5.63-4.117,8.315-6.341l-4.012-2.335c-.613,3.569-1.9,7.13-1.971,10.775a4.754,4.754,0,0,0,1.8,4.3c1.723,1.1,3.89.228,5.683-.222A83.33,83.33,0,0,0,149.27,64.682,53.189,53.189,0,0,0,160.7,54.473a2.471,2.471,0,0,0,0-3.395,2.419,2.419,0,0,0-3.394,0Z"></path><path class="d" d="M182.341,115.1a27.045,27.045,0,0,1-1.277,6.809c-.256.859-.538,1.709-.823,2.558-.077.229-.151.461-.235.688-.066.178-.365.846-.056.156a53.964,53.964,0,0,1-3.587,6.573,64.055,64.055,0,0,1-14.295,16.487,27.236,27.236,0,0,1-10.6,5.365c-3.009.691-1.735,5.32,1.276,4.628,8.054-1.851,14.8-7.661,20.1-13.739a69.329,69.329,0,0,0,11.064-16.479,35.156,35.156,0,0,0,3.23-13.046c.1-3.089-4.7-3.086-4.8,0Z"></path><path class="d" d="M78.65,114.325c2.926,16.884,12.076,33.406,27.718,41.554a37.579,37.579,0,0,0,13.573,4.061,2.416,2.416,0,0,0,2.4-2.4,2.454,2.454,0,0,0-2.4-2.4c-16.13-1.672-28.7-16.138-33.765-30.671a71.951,71.951,0,0,1-2.9-11.42,2.419,2.419,0,0,0-2.952-1.676,2.453,2.453,0,0,0-1.676,2.952Z"></path><path class="d" d="M188.374,89.894a5.526,5.526,0,0,1,7.936.95,9.248,9.248,0,0,1,1.068,4.761,28.7,28.7,0,0,1-.342,6.072c-1.213,7.092-4.95,15.739-12.851,17.1a2.42,2.42,0,0,0-1.676,2.952,2.456,2.456,0,0,0,2.952,1.677c8.179-1.405,13.033-9.13,15.271-16.5a33.965,33.965,0,0,0,1.409-11.964c-.257-3.963-1.455-7.69-5.109-9.753A10.545,10.545,0,0,0,184.98,86.5a2.421,2.421,0,0,0,0,3.394,2.45,2.45,0,0,0,3.394,0Z"></path><path class="d" d="M80.484,86.5a10.506,10.506,0,0,0-10.623-1.982c-3.934,1.552-5.9,4.862-6.4,8.935a32.978,32.978,0,0,0,5.772,22.8A17.242,17.242,0,0,0,80,123.4a2.472,2.472,0,0,0,2.953-1.677,2.42,2.42,0,0,0-1.677-2.952c-7.9-1.357-11.638-10-12.85-17.1a28.693,28.693,0,0,1-.351-5.848c.06-1.654.133-3.558,1.077-4.985a5.522,5.522,0,0,1,7.936-.95,2.463,2.463,0,0,0,3.394,0,2.421,2.421,0,0,0,0-3.394Z"></path><path class="d" d="M123.371,135.142a21.231,21.231,0,0,0,10.233,2.363c3.641-.023,7.348-.728,10.268-3a2.413,2.413,0,0,0,0-3.394,2.462,2.462,0,0,0-3.394,0c.71-.553.094-.085-.088.031-.208.134-.423.258-.642.372-.152.08-.905.394-.307.166-.294.112-.586.226-.885.322a15.25,15.25,0,0,1-5.286.706,15.841,15.841,0,0,1-5.042-.679c-.325-.1-.641-.213-.961-.323-.1-.035-.2-.089-.31-.12.591.173.169.076.013,0-.4-.187-.788-.382-1.176-.587a2.453,2.453,0,0,0-3.284.861,2.426,2.426,0,0,0,.861,3.283Z"></path><path class="d" d="M132.52,110.86a48.75,48.75,0,0,1,1.146,5.246l-.085-.638a3.189,3.189,0,0,1,.019.724l.086-.638a1.744,1.744,0,0,1-.08.326l.242-.574a1.225,1.225,0,0,1-.115.21l.376-.486a1.058,1.058,0,0,1-.172.169l.486-.375a3.429,3.429,0,0,1-.415.22l.573-.242a3.068,3.068,0,0,1-.7.2l.638-.086a2.733,2.733,0,0,1-.658,0l.638.086c-.248-.035-.491-.095-.739-.128a2.649,2.649,0,0,0-1.849.242,2.4,2.4,0,0,0-.861,3.283,2.3,2.3,0,0,0,1.434,1.1c.538.073,1.061.211,1.609.235a5.078,5.078,0,0,0,2.337-.552,3.306,3.306,0,0,0,1.854-2.19,5.605,5.605,0,0,0-.025-2.391c-.285-1.691-.676-3.366-1.111-5.023a2.4,2.4,0,1,0-4.628,1.276Z"></path><path class="d" d="M104.5,96.079c-.876,2.847-.305,9.4,5.088,9.954,7.13-.043,7.509-7.961,5.109-11.684C112.732,91.3,106.955,90.033,104.5,96.079Z"></path><path class="d" d="M161.589,96.079c.876,2.847.305,9.4-5.088,9.954-7.13-.043-7.509-7.961-5.109-11.684C153.356,91.3,159.134,90.033,161.589,96.079Z"></path><path class="c" d="M133.2,213.761q-39.29.283-78.58.493l-5.829.027c-1.87.008-4.005-.238-5.764.462-2.786,1.109-3.948,3.666-3.936,6.512q.009,1.949.023,3.9.077,11.087.22,22.174.35,29.5.863,58.991.23,13.182.516,26.363.114,5.055.252,10.111c.081,2.909,1.141,5.494,4.034,6.612,1.683.651,3.648.4,5.426.383,23.951-.216,47.909-.023,71.86.056,27.308.09,54.617-.158,81.926-.109,4.06.007,8.12.018,12.179.057,1.985.019,4.078.259,5.875-.775,2.506-1.442,3.107-3.923,3.181-6.608.209-7.56.364-15.121.51-22.683q.575-29.564.943-59.131.172-13,.306-25.993.048-4.909.084-9.817c.008-1.276.024-2.552.021-3.828a6.387,6.387,0,0,0-4.54-6.435,22.453,22.453,0,0,0-5.5-.24l-5.913-.027q-7.678-.038-15.357-.083-20.274-.115-40.55-.253-11.124-.075-22.249-.155c-3.09-.022-3.093,4.778,0,4.8q38.644.279,77.291.486,2.922.015,5.845.028c1.566.007,3.227-.146,4.784.019,1.614.171,1.391,1.678,1.385,2.941q-.011,1.984-.025,3.968-.079,10.949-.221,21.9-.343,28.892-.845,57.782-.224,12.876-.5,25.75-.114,5.1-.248,10.192c-.037,1.367.285,3.252-1.532,3.4-1.389.112-2.852-.035-4.246-.046-23.59-.182-47.184-.013-70.774.065-26.876.089-53.753-.15-80.629-.111-4.139.006-8.279.015-12.418.049a19.8,19.8,0,0,1-4.173.011c-1.528-.346-1.139-2.5-1.171-3.667-.2-7.491-.353-14.982-.5-22.474q-.557-28.969-.921-57.942-.168-12.667-.3-25.335-.05-4.928-.087-9.856-.015-2-.025-4c-.007-1.44.026-2.6,1.745-2.626,21.926-.351,43.87-.233,65.8-.38q10.882-.073,21.764-.152C136.289,218.539,136.3,213.738,133.2,213.761Z"></path><path class="e" d="M59.548,336.368c18.146-.113,36.3-.016,54.441.04,22.078.068,44.154-.035,66.232-.068,8.878-.013,17.757-.027,26.635.028,3.089.019,3.093-4.781,0-4.8-18.146-.113-36.295-.016-54.442.04-22.077.068-44.153-.035-66.231-.068-8.878-.013-17.757-.027-26.635.028-3.088.019-3.095,4.819,0,4.8Z"></path><path class="c" d="M133.2,268.84c-2.734.026-5.469.062-8.2.065a2.435,2.435,0,0,0-2.4,2.4q-.017,4.3-.012,8.6,0,2.528.02,5.055c.006.605,0,1.214.025,1.818a2.525,2.525,0,0,0,2.692,2.629c4.914,0,9.83-.034,14.745-.01a4.816,4.816,0,0,0,2.508-.305c1.155-.676,1.191-1.89,1.208-3.065.021-1.577.026-3.155.029-4.733q.012-5-.009-9.993a2.435,2.435,0,0,0-2.4-2.4c-2.734,0-5.469-.039-8.2-.065a2.4,2.4,0,0,0,0,4.8c2.734.026,5.469.062,8.2.065l-2.4-2.4c.02,5.237.091,10.482-.039,15.718l.328-1.211h0l2.072-1.189c-.9-.083-1.832-.026-2.735-.025-1.809,0-3.619.018-5.428.018-1.767,0-3.534-.017-5.3-.018-.946,0-1.92-.062-2.864.025l2.073,1.189h0l.328,1.211c-.131-5.236-.06-10.481-.039-15.718l-2.4,2.4c2.734,0,5.469-.039,8.2-.065a2.4,2.4,0,0,0,0-4.8Z"></path></svg>